<svg version="1.2" xmlns="http://www.w3.org/2000/svg" viewBox="0 0 1536 279" width="1536" height="279">
	<style>
		.s0 { opacity: .94;fill: #fbcb0a } 
		.s1 { opacity: .99;fill: #101110 } 
	</style>
	<g id="Layer 1">
		<g id="Background">
			<path id="Path 0" fill-rule="evenodd" class="s0" d="m1248.04 204.25c-0.52 1.24-2.09 5.18-3.5 8.75-1.4 3.57-4.01 8.89-5.8 11.82-1.78 2.92-6.4 8.54-10.27 12.5-3.87 3.95-10.39 9.41-14.5 12.13-4.11 2.72-10.39 6.47-13.97 8.33-3.58 1.87-6.69 3.58-6.92 3.81-0.23 0.23 57.04 0.41 127.25 0.41h127.67l-0.5-59.5-198.52-0.51zm-663.81 12.64c-0.31 0.25-0.49 10.27-0.4 22.28l0.17 21.84h9l-0.49-43.79c-5.98-0.6-7.97-0.58-8.28-0.33zm14.77 0.32c-0.77 0.66-1.3 2.12-1.19 3.25 0.12 1.12 0.55 2.63 0.95 3.34 0.44 0.77 2.15 1.17 4.24 1 3.08-0.26 3.53-0.65 3.77-3.29 0.16-1.65-0.29-3.59-1-4.3-0.7-0.71-2.19-1.27-3.32-1.25-1.13 0.03-2.68 0.59-3.45 1.25zm47.57 0.98c-1.01 1.47-1.32 3.01-0.84 4.22 0.43 1.04 1.78 2.28 3.02 2.75 1.24 0.46 2.92 0.62 3.75 0.35 0.82-0.28 1.78-1.74 2.13-3.25 0.35-1.52 0.2-3.43-0.35-4.25-0.54-0.83-2.14-1.64-3.54-1.82-1.78-0.21-3.06 0.4-4.17 2zm-571.57 22.32v20.5h9l0.01-16.5 14.99 0.5v-7.5l-15 0.5v-11h18v-7h-27zm125 0v20.5h9v-17l14 1v-7h-14v-11l16.37-0.5 0.63-6.5h-26zm100.4-19.21c-3.46 0.81-3.83 1.2-3.63 3.8 0.17 2.18-0.27 3.03-1.77 3.41-1.45 0.36-2 1.33-2 3.5 0 2.16 0.55 3.13 2 3.5 1.83 0.45 2 1.33 2 10.5 0 9.33 0.17 10.16 2.5 12.5 2.06 2.06 3.47 2.5 8 2.5h5.5c-0.04-7.07-0.3-7.46-2.27-7.15-1.23 0.2-3.02-0.37-3.98-1.25-1.43-1.31-1.7-3.04-1.5-9.35l0.25-7.75c7.5 0.5 7.5 0.5 7.5-3.5v-4c-7.42 0.49-7.51 0.41-8.12-3.56l-0.62-4.06zm32.59 2.21v3.5h12v34h8v-34h12v-7h-32zm103.43-2.22c-3.49 0.82-3.86 1.21-3.65 3.82 0.18 2.31-0.19 2.9-1.78 2.9-1.62 0-2 0.66-2 3.5 0 2.66 0.48 3.62 2 4 1.84 0.46 2 1.33 2 10.5 0 9.33 0.17 10.16 2.5 12.5 2.11 2.11 3.44 2.5 8.5 2.5h6c-0.47-7.1-0.77-7.48-3-7.25-1.37 0.15-3.01-0.08-3.65-0.5-0.63-0.41-1.25-3.68-1.39-7.25-0.14-3.58-0.19-7.29-0.1-8.25 0.1-1.31 1.03-1.75 3.64-1.75 3.22 0 3.5-0.24 3.5-3 0-1.65 0.34-3.01 0.75-3.03 0.41-0.01 3.56 6.97 7 15.5l6.25 15.53-6 13c8.96 0.05 9.66-0.26 10.87-2.72 0.75-1.53 4.7-11.33 8.76-21.78 4.07-10.45 7.39-19.57 7.38-20.25 0-0.84-1.4-1.17-4.26-1l-4.25 0.25c-4.95 14.72-6.65 19.9-6.97 21-0.41 1.41-1.86-1.38-4.94-9.5l-4.36-11.5c-13.35 0-17.24 0-17.26 0-0.03 0-0.3-1.8-0.61-4-0.31-2.2-0.67-4.03-0.81-4.07-0.13-0.03-1.98 0.35-4.12 0.85zm73.57 19.22v20.5c19.48-0.55 22.3-1.02 25.75-2.8 2.52-1.3 5.36-3.94 6.98-6.45 1.76-2.75 2.85-6.02 3.1-9.25 0.21-2.75-0.12-6.8-0.74-9-0.62-2.2-2.58-5.44-4.36-7.2-1.77-1.76-4.92-3.9-6.98-4.75-2.53-1.05-6.99-1.55-13.75-1.55h-10zm9-13.5l2.75-0.02c1.51 0 4.1 0.24 5.75 0.53 1.65 0.3 4.01 1.43 5.25 2.51 1.24 1.09 2.76 3.66 3.37 5.73 0.66 2.2 0.82 5.4 0.38 7.75-0.43 2.34-1.9 5.14-3.54 6.75-2.38 2.33-3.64 2.75-13.96 2.75v-13zm-414.66 2.43c-0.4 0.86-0.53 7-0.28 13.64l0.44 12.09c5.9 5.3 7.4 5.84 11.37 5.84 3.99 0 5.34-0.5 7.53-2.75l2.68-2.75c-0.08 5.29 0.22 5.5 3.92 5.5h4v-33h-8c0 20.3-0.16 21.16-2.45 23.5-1.35 1.37-3.26 2.52-4.25 2.54-0.99 0.02-2.8-0.76-4.04-1.75-2.04-1.63-2.26-2.77-2.5-12.79l-0.26-11c-6.31-0.53-7.64-0.16-8.16 0.93zm35.66 15.07v16.5h8c0-20.31 0.17-21.17 2.46-23.5 1.35-1.38 3.26-2.49 4.25-2.47 0.98 0.02 2.69 0.71 3.79 1.54 1.77 1.33 2.03 2.85 2.25 12.97l0.25 11.46 8.5-0.01c-0.22-6.58-0.33-12.66-0.39-17.74-0.1-8.88-0.23-9.37-3.11-12.25-2.47-2.48-3.83-3.01-7.75-3.04-3.25-0.02-5.62 0.61-7.5 2-2.74 2.03-2.75 2.03-2.75 0.04 0-1.67-0.66-2-4-2h-4zm96-15.8c-0.82 0.3-2.55 1.51-3.84 2.67-1.29 1.17-3.03 3.48-3.86 5.13-0.83 1.65-1.5 5.25-1.48 8 0.02 2.75 0.51 6.12 1.08 7.5 0.57 1.37 1.84 3.43 2.82 4.57 0.98 1.14 2.79 2.6 4.03 3.25 1.24 0.65 4.28 1.18 6.75 1.18 3.34 0 5.28-0.65 7.5-2.5l3-2.5c0 4.75 0.4 5 4 5h4c-0.48-31.31-0.63-32.5-2.4-32.83-1.05-0.19-2.88-0.08-4.06 0.25-1.22 0.33-2.02 1.25-1.85 2.09 0.17 0.82 0.17 1.49 0 1.49-0.18 0-1.64-0.92-3.25-2.04-1.87-1.29-4.39-1.99-6.94-1.92-2.2 0.06-4.67 0.36-5.5 0.66zm3.5 7.37c1.1-0.52 2.56-0.97 3.25-1.01 0.69-0.03 2.26 0.46 3.5 1.1 1.24 0.64 2.8 1.88 3.47 2.75 0.67 0.87 1.23 3.27 1.25 5.34 0.02 2.06-0.31 4.49-0.72 5.39-0.41 0.9-1.99 2.25-3.5 3-1.51 0.75-3.42 1.36-4.25 1.36-0.82 0-2.85-1.35-4.5-3q-3-3-3-6c0-1.65 0.56-4.13 1.25-5.5 0.69-1.38 2.15-2.92 3.25-3.43zm30-6.26c-1.65 0.99-3.61 3.13-4.37 4.75-1.16 2.49-1.16 3.44 0 6.24 0.8 1.92 2.63 3.87 4.37 4.67 1.65 0.76 5.21 1.97 7.9 2.7 2.7 0.73 5.18 1.91 5.5 2.61 0.33 0.71 0.15 1.69-0.4 2.18-0.55 0.49-2.24 1.15-3.75 1.47-2.08 0.43-3.36-0.04-5.25-1.93-1.71-1.72-3.6-2.5-6-2.5-3.06 0-3.5 0.31-3.5 2.5 0 1.62 1.24 3.55 3.5 5.5 2.97 2.54 4.34 3 9 3 3.03 0 7.08-0.68 9-1.5 1.93-0.83 3.95-2.4 4.5-3.5 0.55-1.1 1-3.35 1-5 0-1.65-0.34-3.74-0.75-4.64-0.41-0.91-1.99-2.26-3.5-3-1.51-0.75-5-1.81-7.75-2.36-3.21-0.65-5.23-1.63-5.65-2.75-0.42-1.14 0.02-2.2 1.25-3.02 1.05-0.7 2.46-1.26 3.15-1.25 0.69 0.01 2.6 1.14 4.25 2.52 1.65 1.37 4.13 2.5 5.5 2.5 1.56 0 2.5-0.57 2.5-1.5 0-0.83-0.56-2.68-1.25-4.12-0.69-1.44-2.49-3.24-4-4-1.51-0.76-4.89-1.38-7.5-1.38-2.8 0-5.98 0.75-7.75 1.81zm99.75 0.19c-1.79 1.1-4.15 3.46-5.24 5.25q-2 3.25-2 8.5c-0.01 2.88 0.61 6.71 1.36 8.5 0.76 1.78 2.6 4.37 4.1 5.75 1.99 1.82 4.11 2.6 7.88 2.87 4.38 0.31 5.64-0.03 8.4-2.25l3.25-2.62c0 4.75 0.4 5 4 5h4v-33c-7.6 0-8 0.25-8 2.5v2.5c-5.17-4.31-7.18-5-10.25-5-2.49 0-5.59 0.83-7.5 2zm5.65 6.08c0.88-0.56 2.16-1.04 2.85-1.05 0.69-0.02 2.6 0.64 4.25 1.47 2.19 1.09 3.27 2.58 4 5.5 0.55 2.2 0.78 4.9 0.5 6-0.27 1.1-1.74 2.91-3.25 4.03-1.51 1.12-3.65 2.04-4.75 2.04-1.1 0-3.12-0.85-4.5-1.88-1.44-1.08-2.82-3.43-3.25-5.54-0.54-2.65-0.3-4.46 0.9-6.6 0.9-1.63 2.37-3.41 3.25-3.97zm30.1-6.39c-1.37 0.94-3.05 2.41-3.72 3.26-0.67 0.85-1.23 3.23-1.25 5.3-0.02 2.72 0.59 4.23 2.22 5.52 1.24 0.97 5.36 2.66 9.15 3.75 3.84 1.1 7.12 2.64 7.4 3.48 0.28 0.82-0.35 2.09-1.4 2.81-1.14 0.79-3.09 1.07-4.9 0.7-1.65-0.34-3.56-1.5-4.25-2.57-0.85-1.32-2.37-1.94-4.75-1.94-2.22 0-3.68 0.54-4 1.5-0.28 0.85 1.11 3.2 3.25 5.45 3.51 3.7 4.13 3.96 9.5 4 3.16 0.03 7.33-0.63 9.25-1.45 1.93-0.83 3.95-2.4 4.5-3.5 0.55-1.1 1-3.35 1-5 0-1.65-0.45-3.9-1-5-0.55-1.1-2.91-2.65-5.25-3.44-2.34-0.79-5.94-1.69-8-2-2.35-0.35-3.95-1.21-4.3-2.31-0.33-1.04 0.18-2.27 1.25-3.02 0.99-0.7 2.59-1.26 3.55-1.25 0.96 0.01 3.1 1.14 4.75 2.52 1.65 1.37 4.13 2.5 5.5 2.5 1.93 0 2.5-0.51 2.48-2.25-0.01-1.24-0.8-3.21-1.75-4.39-0.95-1.17-2.74-2.63-3.98-3.25-1.24-0.61-4.61-1.12-7.5-1.12-3.32-0.01-6.16 0.62-7.75 1.7zm151.06 0.47c-1.89 1.28-4.34 3.91-5.43 5.84-1.26 2.2-1.99 5.34-1.99 8.5 0 3.15 0.73 6.29 1.99 8.5 1.09 1.92 3.54 4.52 5.43 5.77 2.51 1.66 4.87 2.28 8.69 2.25 2.89-0.01 6.6-0.7 8.25-1.52 1.65-0.83 3.9-2.97 5-4.75 1.1-1.79 1.99-3.48 1.99-3.75 0-0.28-1.8-0.39-4-0.25-2.19 0.13-5 0.93-6.24 1.75-1.24 0.83-3.37 1.53-4.75 1.55-1.37 0.02-3.47-0.77-4.66-1.76-1.19-0.99-2.43-2.81-2.75-4.04-0.59-2.25-0.57-2.25 11.16-2.07l11.75 0.17c-0.52-6.09-1.32-9.2-2.12-10.85-0.79-1.65-2.67-3.89-4.16-4.98-1.78-1.29-4.79-2.1-8.72-2.34-5.01-0.3-6.57 0.03-9.44 1.98zm5.44 4.91c1.1-0.52 2.34-0.97 2.75-1.01 0.41-0.03 1.76 0.39 3 0.94 1.24 0.55 2.81 2.13 4.75 6h-15l1.25-2.5c0.69-1.38 2.15-2.92 3.25-3.43zm36.31 9.61l0.19 16.32h9l-0.5-32.5-8.88-0.13zm20.12-14.42c-1.88 1.25-4.21 3.84-5.18 5.75-1 1.99-1.74 5.73-1.75 8.73 0 2.89 0.63 6.49 1.41 8 0.77 1.52 2.61 3.88 4.09 5.25 2.14 2 3.93 2.57 8.84 2.84 3.71 0.2 7.32-0.2 9.07-1 1.6-0.74 3.96-2.57 5.25-4.09 1.29-1.51 2.34-3.65 2.34-4.75 0-1.61-0.66-2-3.5-2-2.26 0-4.55 0.89-6.5 2.5-1.65 1.38-4.12 2.5-5.5 2.5-1.37 0-3.4-0.9-4.5-2-1.1-1.1-2.26-3.46-2.59-5.25-0.36-1.98 0.03-4.71 1-7 1.23-2.88 2.28-3.86 4.59-4.25 1.65-0.27 3.98-0.04 5.18 0.53 1.2 0.56 2.55 1.91 3 3 0.63 1.5 1.78 1.97 4.82 1.97 3.16 0 4-0.37 3.97-1.75-0.01-0.96-0.86-3.1-1.88-4.75-1.02-1.65-3.48-3.78-5.47-4.75-1.99-0.96-5.79-1.75-8.44-1.75-3.33 0-5.87 0.7-8.25 2.27zm28.07 14.48v16.25h8v-32.5h-7.99zm20.02-14.5c-1.84 1.24-4.2 3.38-5.24 4.75-1.05 1.38-2.16 4.53-2.48 7-0.31 2.48-0.04 6.08 0.59 8 0.64 1.93 2.28 4.74 3.63 6.25 1.36 1.52 3.6 3.2 4.97 3.75 1.38 0.55 4.64 1.01 7.25 1.01 2.72 0 6.26-0.79 8.25-1.86 1.93-1.02 4.51-3.61 5.74-5.75q2.23-3.89 2.23-8.9 0-5-2.23-8.89c-1.23-2.14-3.81-4.73-5.74-5.75-2.08-1.11-5.54-1.86-8.57-1.86-3.59 0-6.03 0.66-8.4 2.25zm3.47 7.21c1.33-1.35 3.56-2.46 4.96-2.46 1.4 0 3.67 1.13 5.04 2.5 1.38 1.38 2.58 3.74 2.66 5.25 0.09 1.52 0.09 3.65 0 4.75-0.09 1.1-1.29 3.02-2.66 4.25-1.37 1.24-3.62 2.25-5 2.25-1.37 0-3.62-1.12-5-2.5-1.95-1.95-2.49-3.49-2.45-7.04 0.03-3.42 0.64-5.16 2.45-7zm25.5 3.04c0 7.2 0.48 13.46 1.12 14.75 0.62 1.24 2.08 3.03 3.25 3.98 1.28 1.04 3.93 1.75 6.63 1.79 3.03 0.04 5.4-0.61 7.25-1.98 2.74-2.03 2.75-2.03 2.75-0.04 0 1.71 0.67 2 4.5 2h4.5l-0.5-32.5h-8c-0.38 14.73-0.68 19.9-0.92 21-0.23 1.1-1.69 2.61-3.25 3.34-1.55 0.73-3.84 1.07-5.08 0.75-1.23-0.32-2.7-1.71-3.25-3.09-0.55-1.37-1-7-1-12.5v-10h-8zm38.93-10.2c-1.88 1.26-3.83 3.4-4.32 4.75-0.48 1.35-0.6 3.69-0.25 5.2 0.36 1.52 1.91 3.54 3.46 4.5 1.55 0.97 5.37 2.32 8.5 3 3.71 0.82 5.91 1.86 6.33 3 0.43 1.14-0.02 2.2-1.25 3.02-1.04 0.7-2.68 1.26-3.65 1.25-0.96-0.01-3.1-1.14-4.75-2.52-2.08-1.73-3.99-2.42-6.25-2.25-2.62 0.21-3.19 0.64-2.95 2.25 0.17 1.1 1.85 3.47 3.75 5.25 3.03 2.86 4.12 3.25 8.95 3.25 3.03 0 7.08-0.67 9-1.5 1.93-0.82 3.95-2.4 4.5-3.5 0.55-1.1 0.99-3.46 0.97-5.25-0.02-1.78-0.58-4-1.25-4.91-0.67-0.92-2.9-2.38-4.97-3.25-2.06-0.87-4.76-1.57-6-1.54-1.23 0.02-3.31-0.77-4.62-1.75-2.23-1.69-2.27-1.9-0.68-3.55 0.93-0.96 2.56-1.75 3.63-1.75 1.06 0 2.94 1.11 4.17 2.47 1.49 1.62 3.36 2.47 5.5 2.5 2.24 0.02 3.25-0.43 3.25-1.47 0-0.82-0.56-2.67-1.25-4.12-0.68-1.44-2.48-3.24-4-4-1.51-0.75-4.91-1.38-7.57-1.38-3.36 0-5.85 0.7-8.25 2.3zm-557.1 21.95c-0.89 0.69-1.89 2.27-2.23 3.5-0.36 1.37-0.01 2.84 0.9 3.75 0.83 0.83 2.76 1.5 4.3 1.5 1.54 0 3.35-0.56 4.02-1.25 0.67-0.68 1.21-2.48 1.2-4-0.01-1.73-0.75-3.11-2.02-3.75-1.1-0.55-2.57-1-3.27-1-0.7 0-2.01 0.57-2.9 1.25zm139.87 0.95c-0.87 1.31-1.24 3.11-0.86 4.18 0.36 1.03 1.11 2.28 1.66 2.78 0.55 0.49 2.35 0.77 3.99 0.62 2.22-0.21 3.23-0.98 4-3.06 0.71-1.95 0.68-3.31-0.09-4.5-0.6-0.95-2.47-1.85-4.14-2.02-2.27-0.23-3.42 0.27-4.56 2zm167.3-1c-0.77 0.66-1.31 2.35-1.21 3.75 0.1 1.41 0.75 3.12 1.45 3.82 0.69 0.7 2.41 1.26 3.81 1.25 1.41-0.01 3.1-0.58 3.77-1.27 0.67-0.68 1.22-2.37 1.22-3.75 0-1.37-0.57-3.07-1.27-3.76-0.7-0.7-2.41-1.26-3.82-1.25-1.4 0.01-3.18 0.55-3.95 1.21zm277.47 0.63c-1 1.01-1.75 2.7-1.66 3.75 0.09 1.06 0.73 2.49 1.43 3.19 0.69 0.7 2.5 1.26 4.01 1.25 1.73-0.01 3.32-0.85 4.26-2.27 0.83-1.23 1.51-2.81 1.5-3.5 0-0.68-0.68-1.92-1.51-2.75-0.82-0.82-2.55-1.5-3.85-1.5-1.29 0-3.17 0.83-4.18 1.83z"/>
			<path id="Path 1" fill-rule="evenodd" class="s1" d="m1003.5 16.33c-2.75 0.7-7.43 2.6-10.39 4.22-2.96 1.62-7.62 5.43-10.35 8.45-2.73 3.03-6.33 8.43-8 12-1.67 3.58-3.62 9.43-4.34 13-0.72 3.58-1.61 10.33-1.97 15-0.37 4.67-0.17 13.45 0.43 19.5 0.6 6.05 2.17 15.28 3.48 20.5 1.31 5.22 3.79 12.88 5.5 17 1.71 4.13 5.31 11.32 8.01 16l4.9 8.5c-3.31 3.58-8.19 6.95-12.99 9.81-4.8 2.85-8.73 5.64-8.73 6.19 0 0.55 1.63 3.93 3.63 7.5 2 3.57 5.14 8.86 6.98 11.75l3.34 5.25c12.01-6.41 18.54-10.23 22.25-12.64l6.75-4.36c8.91 7.88 13.08 10.98 15 11.98 1.92 1 6.2 2.53 9.5 3.4 3.47 0.92 10.12 1.59 15.75 1.6l9.75 0.02 0.03-28.5c-6.61-0.95-10.56-2.19-13.03-3.37-2.47-1.19-6.3-3.65-8.5-5.48l-4-3.32c5.96-7.62 10.11-14.78 13.06-20.83 2.95-6.05 6.52-15.05 7.93-20 1.42-4.95 3.28-14.4 4.15-21 1.1-8.37 1.38-15.33 0.93-23-0.35-6.05-1.3-13.81-2.1-17.25-0.81-3.44-2.57-8.61-3.92-11.5-1.35-2.89-4.16-7.21-6.25-9.61-2.46-2.83-6.43-5.65-11.26-8-7.12-3.48-7.97-3.65-19-3.86-6.83-0.14-13.58 0.29-16.54 1.05zm6.88 30.44c1.29-1.05 3.88-1.74 6.62-1.76 2.74-0.01 5.45 0.66 6.94 1.73 1.34 0.97 3.07 3.34 3.84 5.26 0.77 1.92 1.81 7.1 2.3 11.5 0.57 5.12 0.51 12.14-0.18 19.5-0.6 6.33-2.2 15.33-3.56 20-1.36 4.67-4.25 12.21-6.41 16.75-2.16 4.54-4.38 8.03-4.93 7.75-0.55-0.28-2.19-2.86-3.64-5.75-1.45-2.89-3.5-7.72-4.55-10.75-1.05-3.03-2.55-10-3.34-15.5-0.79-5.5-1.43-13.6-1.42-18 0.01-4.4 0.68-11.6 1.48-16 0.81-4.4 2.2-9.13 3.09-10.5 0.9-1.38 2.59-3.28 3.76-4.23zm62.75-28.86c-2.66 1.14-5.4 3.36-7 5.66-1.89 2.73-2.72 5.35-2.96 9.36-0.26 4.37 0.19 6.54 2.04 10.07 1.71 3.23 3.64 5.14 6.83 6.76 3.3 1.67 6.15 2.25 10.96 2.23 4.98-0.03 7.44-0.58 10.5-2.38 2.2-1.29 4.72-3.42 5.6-4.73 0.88-1.31 2.13-3.96 2.77-5.88 0.73-2.16 0.9-5.22 0.45-8-0.41-2.48-1.66-5.85-2.79-7.5-1.12-1.65-4.07-4.02-6.54-5.26-3.07-1.54-6.22-2.25-9.99-2.23-3.08 0.02-7.42 0.86-9.87 1.9zm-661.13 17.09v18h36v-36h-36zm395.05 16.25l0.04 34.25c-6.27-5.81-10.23-8.57-12.84-9.88-2.61-1.3-8.01-3.1-12-4-3.99-0.89-11.41-1.61-16.5-1.61-5.09 0.01-12.17 0.71-15.75 1.56-3.58 0.84-9.42 2.97-12.99 4.73-3.75 1.85-9.09 5.73-12.65 9.2-4.37 4.26-7.29 8.32-10.07 14-2.16 4.4-4.57 11.04-5.36 14.76-0.78 3.72-1.66 6.77-1.93 6.77-0.27 0-1.3-3.27-2.28-7.27-0.98-3.99-3.52-10.41-5.66-14.26-2.13-3.85-5.95-9.14-8.47-11.75-2.52-2.61-7.4-6.57-10.84-8.8-3.44-2.22-9.17-4.99-12.75-6.14-4.7-1.51-10.1-2.22-19.5-2.57-9.59-0.35-15.1-0.05-21 1.14-4.53 0.91-11.22 3.24-15.41 5.37-4.48 2.26-9.59 5.93-12.9 9.25-3.01 3.03-7 7.75-8.86 10.5-1.86 2.75-4.54 8.6-5.95 13-1.83 5.67-2.72 11.05-3.08 18.5-0.35 7.44-0.04 12.68 1.09 18 0.87 4.13 3.23 10.88 5.25 15 2.68 5.48 5.64 9.45 11.01 14.75 5.24 5.17 9.43 8.24 14.6 10.7 3.99 1.9 10.29 4.15 14 5 4.09 0.94 11.98 1.59 20 1.65 9.53 0.07 15.08-0.38 19.75-1.6 3.58-0.94 8.98-2.95 12-4.48 3.02-1.53 7.94-4.97 10.93-7.65 2.99-2.68 7.16-7.57 9.28-10.87 2.12-3.3 4.63-7.91 5.57-10.24 0.95-2.34 1.49-4.46 1.22-4.73-0.27-0.26-7.25-0.8-15.5-1.19l-15-0.71c-7.95 8.11-10.39 9.58-15 10.9-4.45 1.27-8.46 1.61-15.5 1.29-6.99-0.32-10.82-1.02-14.5-2.68-2.75-1.23-6.5-3.68-8.34-5.44-1.83-1.76-4.2-4.89-5.25-6.95-1.05-2.06-1.91-4.43-1.91-5.25 0-1.32 5.8-1.47 47.23-1.25l47.24 0.25c0.95 5.43 1.96 9.47 2.86 12.5 0.9 3.03 3.22 8.2 5.16 11.5 1.93 3.3 5.93 8.25 8.87 11 2.94 2.75 8 6.44 11.25 8.2 3.24 1.77 9.49 4.13 13.89 5.26 5.81 1.5 11.15 2.06 19.5 2.06 7.6 0 13.36-0.54 17-1.61 3.02-0.88 7.98-2.9 11-4.49 3.02-1.59 7.3-4.67 9.5-6.85l4-3.95c3.87 7.97 6.27 11.2 7.82 12.33 2.48 1.8 4.53 2.08 16.75 2.3l13.93 0.25v-28c-5.42 0-7.67-0.68-8.5-1.5-1.31-1.31-1.5-10.78-1.5-73v-71.5h-33zm-169.3 44.86c3.17-0.5 8-0.7 10.75-0.45 2.75 0.24 7.03 1.08 9.5 1.85 2.48 0.78 6.53 3.15 9 5.27 2.48 2.12 5.47 5.85 6.66 8.29 1.19 2.43 2.43 5.44 3.34 8.93h-64l0.65-2.75c0.35-1.51 1.66-4.77 2.9-7.25 1.24-2.47 3.31-5.46 4.61-6.64 1.29-1.17 4.26-3.09 6.59-4.25 2.34-1.16 6.84-2.51 10-3zm124.69 5.61c3.67-1.29 7.26-1.68 13.06-1.44 5.88 0.25 9.46 1 13.5 2.85 3.03 1.37 7.22 4.27 9.32 6.44 2.1 2.16 4.92 6.18 6.27 8.93 1.88 3.81 2.47 6.66 2.51 12 0.03 3.85-0.27 8.35-0.66 10-0.4 1.65-1.5 4.57-2.45 6.5-0.95 1.93-4.14 5.66-7.1 8.3-3.17 2.82-7.45 5.49-10.39 6.46-3.02 1.01-8.15 1.66-13 1.64-6.35-0.01-9.13-0.53-13.5-2.51-3.02-1.37-7.44-4.49-9.81-6.94-2.47-2.55-5.13-6.69-6.25-9.7q-1.93-5.25-1.96-13c-0.01-6.8 0.39-8.54 3.25-14.19 2.08-4.09 4.89-7.74 7.71-10 2.44-1.96 6.71-4.36 9.5-5.34zm478.56 2.28v87h36c0.01-56.19 0.44-74.08 0.97-76 0.52-1.92 2-5.07 3.28-7 1.28-1.92 4.34-4.62 6.79-6 3.79-2.12 5.75-2.5 12.96-2.5 6.79 0 9.21 0.42 12 2.06 1.93 1.13 4.85 4.25 6.5 6.92l3 4.86c1.05 55.83 1.38 60.74 2.89 64.16 0.98 2.2 2.75 5.33 3.94 6.94 1.2 1.62 4.65 4.1 7.67 5.5 5.01 2.33 6.66 2.56 18.5 2.56 7.15 0 13.79-0.34 14.75-0.75 1.55-0.66 1.75-2.37 1.75-14.75v-14c-7.66 0-9.59-0.59-11-2-1.1-1.1-2.21-3.46-2.47-5.25-0.26-1.79-0.64-13.82-0.84-26.75-0.31-19.92-0.66-24.41-2.32-29.5-1.07-3.3-3.11-8.03-4.54-10.5-1.42-2.47-4.44-6.19-6.71-8.25-2.26-2.06-6.25-4.82-8.87-6.13-2.61-1.31-7.22-2.94-10.25-3.62-3.47-0.78-9.73-1.06-17-0.76-8.87 0.37-12.86 1.01-17.5 2.83-3.3 1.29-8.13 4.05-10.75 6.14l-4.75 3.79v-66h-34zm-910-52.5v19.5l-11.5 0.5-0.5 27.5h12c0.61 63.11 0.88 68.21 2.46 73 1.3 3.94 3.28 6.94 6.93 10.58 3.34 3.31 7.2 5.91 11.11 7.48 5.63 2.25 7.25 2.4 26 2.42 11 0.01 22.14-0.32 24.75-0.73l4.75-0.75 0.01-25.5h-32.96l-5.55-5.54-0.5-60.96 39.5-0.5v-27l-40.5-0.5v-39h-36zm1045 0v19.5h-16v28h16c0.5 68.78 0.55 69.6 2.83 74.5 1.29 2.75 3.76 6.74 5.5 8.86 1.91 2.32 5.77 5.11 9.67 6.99 6.06 2.92 7.38 3.15 19.5 3.5 7.15 0.21 18.07 0.1 24.25-0.23 7.79-0.43 11.33-1.01 11.52-1.87 0.14-0.69 0.03-6.61-0.25-13.17l-0.52-11.91c-20.92 0.31-28.46-0.06-30.25-0.63-2.28-0.73-3.69-2.08-4.75-4.54-1.21-2.84-1.5-8.94-1.5-32.5v-29h37v-28h-37v-39h-36zm-1242.5 18.45c-2.75 0.42-6.8 1.35-9 2.08-2.2 0.74-5.8 2.35-8 3.59-2.2 1.24-5.12 3.42-6.5 4.84-1.37 1.43-2.83 2.58-3.25 2.57-0.41-0.02-0.75-2.73-0.75-6.03v-6h-32v120h34c0.48-73.42 0.65-76.78 2.37-80 1.03-1.92 2.61-4.34 3.5-5.36 0.9-1.02 3.32-2.7 5.38-3.75 2.07-1.04 6.34-2.18 9.5-2.53 3.64-0.4 7.22-0.17 9.75 0.64 2.2 0.7 5.13 2.04 6.5 2.98 1.38 0.94 3.62 3.91 4.99 6.61 2.42 4.79 2.5 5.63 3.08 33.41 0.53 25.68 0.8 29.04 2.69 34 1.23 3.2 3.6 6.86 5.67 8.75 2.13 1.94 5.9 3.91 9.32 4.89 4.48 1.27 7.86 1.48 15.25 0.95 5.23-0.37 11.42-1.11 13.75-1.63 2.34-0.53 4.24-1.52 4.23-2.21-0.02-0.69-1.75-3.5-3.85-6.25-2.11-2.75-5.02-7.36-6.48-10.25-1.45-2.89-3.58-8.96-4.72-13.5-1.61-6.41-2.25-13.37-2.88-31.25-0.7-19.67-1.14-23.94-3.02-29.5-1.21-3.57-4.07-8.93-6.36-11.89-2.29-2.96-5.97-6.64-8.17-8.17-2.2-1.53-5.8-3.43-8-4.23-2.2-0.8-6.47-1.75-9.5-2.12-3.02-0.37-7.07-0.83-9-1.03-1.92-0.19-5.75-0.02-8.5 0.39zm95.5 1.67c-3.02 0.82-8.2 2.92-11.5 4.66-3.3 1.74-8.81 5.98-12.25 9.44-4.31 4.33-7.3 8.53-9.64 13.53-1.86 3.99-3.99 9.73-4.73 12.75-0.8 3.24-1.33 10.85-1.31 18.5 0.04 10.4 0.5 14.6 2.31 21 1.24 4.4 3.69 10.68 5.44 13.95 1.75 3.27 5.91 8.67 9.24 12 3.32 3.33 8.72 7.49 12 9.24 3.27 1.76 8.87 3.89 12.44 4.74 3.58 0.85 10.55 1.54 15.5 1.54 5.01 0 11.67-0.71 15-1.59 3.3-0.87 8.14-2.66 10.75-3.98 2.62-1.32 6.44-3.96 8.5-5.86 2.07-1.9 4.09-3.48 4.5-3.5 0.42-0.02 0.73 0.52 0.71 1.21-0.02 0.69 1.67 3.05 3.75 5.26 2.17 2.29 5.51 4.53 7.79 5.23 2.29 0.7 9.7 1.23 17.25 1.24l13.25 0.02v-28c-6.58 0.03-9.4-0.61-10.5-1.4-1.94-1.4-2-2.73-2.25-46.02l-0.25-44.58c-18.21 0.02-25.22 0.35-27.34 0.76l-3.84 0.74c0.53 9.69 0.46 12.49 0.18 12.47-0.27-0.03-2.41-1.83-4.75-4.01-2.33-2.18-6.16-4.93-8.5-6.11-2.33-1.19-6.5-2.76-9.25-3.49-2.81-0.75-9.8-1.31-16-1.28-6.45 0.03-13.27 0.67-16.5 1.54zm13 30.14c2.48-0.88 7.32-1.64 10.75-1.68 3.44-0.04 8.17 0.39 10.5 0.96 2.34 0.57 6.5 2.73 9.25 4.8 3.43 2.57 5.95 5.61 8 9.64 2.72 5.32 3 6.79 3 15.45 0 7.54-0.43 10.53-2.06 14.07-1.13 2.48-3.65 6.3-5.6 8.5-1.94 2.2-5.97 5.1-8.94 6.45-4.25 1.92-7.1 2.45-13.4 2.48-6.19 0.03-9.01-0.45-12.5-2.12-2.47-1.19-6.27-4.11-8.44-6.49-2.16-2.37-4.82-6.34-5.9-8.82-1.08-2.47-2.18-7.42-2.45-11-0.37-4.85 0.05-8.34 1.65-13.75 1.73-5.86 3.05-8.17 6.89-12.07 2.82-2.85 6.59-5.47 9.25-6.42zm647-30.21c-3.57 0.77-9.82 3.1-13.89 5.17-4.06 2.08-9.5 5.81-12.08 8.28-2.58 2.48-6.58 7.43-8.88 11-2.31 3.58-5.12 9.2-6.25 12.5-1.34 3.93-2.24 9.8-2.61 17-0.35 6.92-0.09 13.6 0.7 18 0.69 3.85 2.47 9.7 3.94 13 1.48 3.3 4.51 8.7 6.72 12 2.34 3.49 6.71 8.03 10.44 10.86 3.53 2.68 8.66 5.99 11.41 7.37 2.75 1.39 8.38 3.37 12.5 4.4 5.41 1.37 10.99 1.89 20 1.87 7.72-0.02 14.99-0.62 19-1.58 3.58-0.85 9.61-3.2 13.41-5.23 4.36-2.33 8.97-5.92 12.5-9.74 3.24-3.5 7.17-9.29 9.34-13.75 2.07-4.23 3.75-8.37 3.75-9.2 0-1.27-2.33-1.5-15-1.5h-15c-3.14 4.71-6.46 7.17-9.75 8.73-4.69 2.23-7.49 2.8-15.25 3.13-6.95 0.28-11.11-0.07-15.5-1.32-3.3-0.95-7.57-2.87-9.5-4.28-1.92-1.42-4.31-3.51-5.3-4.67-1-1.15-2.68-4-3.75-6.34-1.07-2.34-1.95-4.47-1.95-4.75 0-0.27 21.27-0.5 47.25-0.49h47.25c-1.09-16.67-2.35-24.88-3.51-29.01-1.16-4.12-3.75-10.42-5.76-14-2-3.57-6.36-9.2-9.7-12.5-3.86-3.82-8.77-7.35-13.54-9.73-4.12-2.05-10.64-4.4-14.49-5.23-4.08-0.88-11.79-1.48-18.5-1.44-6.32 0.03-14.42 0.69-18 1.45zm6.5 26.53c3.45-1.37 7.49-2 13-2.04 4.4-0.03 10.25 0.59 13 1.39 2.83 0.82 6.96 3.14 9.5 5.34 2.48 2.13 5.46 5.87 6.62 8.31 1.17 2.43 2.41 5.43 3.38 8.92h-63l0.65-2.75c0.35-1.51 1.7-4.89 3-7.5 1.29-2.61 3.82-5.86 5.6-7.22 1.79-1.36 5.5-3.36 8.25-4.45zm251.25-26.5c-3.16 0.78-8.33 2.65-11.5 4.15-3.36 1.6-8.52 5.44-12.41 9.25-5.18 5.07-7.54 8.41-10.63 15.02-2.18 4.68-4.58 10.98-5.33 14-0.77 3.13-1.35 10.68-1.34 17.5 0.01 8.2 0.57 14.06 1.76 18.5 0.95 3.58 3.16 9.43 4.89 13 2.11 4.36 5.48 8.82 10.23 13.53 3.95 3.92 9.74 8.42 13.08 10.17 3.3 1.72 8.93 3.93 12.5 4.92 4.7 1.29 9.84 1.76 18.5 1.69 9.26-0.07 13.49-0.57 18.5-2.19 3.58-1.15 8.89-3.79 11.8-5.86 2.91-2.07 5.27-4.1 5.25-4.51-0.03-0.41 0.29-0.74 0.7-0.74 0.42 0.01 0.4 2.82-0.03 6.25-0.44 3.43-1.9 8.72-3.25 11.74-1.35 3.03-3.92 6.94-5.71 8.7-1.79 1.75-5.96 4.45-9.26 5.99-5.31 2.48-7.15 2.8-16 2.8-8.22 0.01-10.8-0.38-14.5-2.16-2.47-1.2-5.85-3.68-7.5-5.52-1.65-1.85-3.67-4.33-4.5-5.51-1.49-2.14-1.59-2.15-18.25-0.98-16.36 1.15-16.75 1.23-16.75 3.43 0 1.24 1.5 5.51 3.33 9.5 1.89 4.11 5.53 9.63 8.4 12.75 2.78 3.03 7.69 7.08 10.9 9 3.22 1.93 9.45 4.8 13.86 6.4 6.73 2.43 10.01 2.97 20.51 3.38 9.65 0.37 14.33 0.08 20.5-1.27 4.4-0.96 10.7-3.02 14-4.56 3.3-1.54 8.82-4.86 12.25-7.38 3.44-2.51 8.11-6.93 10.37-9.82 2.27-2.89 5.19-7.39 6.5-10 1.31-2.61 3.33-8.24 4.49-12.5 2.01-7.44 2.1-10.15 2.25-68.25l0.14-60.5-31.5-0.5v13c-5.42-4.65-9.25-7.12-12-8.5-2.75-1.37-7.81-3.17-11.25-3.99-3.61-0.85-10.68-1.45-16.75-1.41-5.77 0.04-13.08 0.7-16.25 1.48zm13.25 29.93c2.48-0.76 6.98-1.41 10-1.45 3.03-0.04 7.75 0.58 10.5 1.39 2.75 0.81 6.99 2.96 9.41 4.76 2.43 1.81 5.64 5.09 7.14 7.29 1.5 2.2 3.52 6.7 4.47 10 1.16 3.98 1.59 8.02 1.28 12-0.25 3.3-1.41 8.03-2.57 10.5-1.16 2.48-3.83 6.27-5.92 8.43-2.09 2.17-6.28 5.07-9.31 6.45-4.48 2.05-7.07 2.52-14 2.54-6.45 0.01-9.58-0.47-13-2.03-2.47-1.12-6.24-3.58-8.38-5.46-2.13-1.89-5.04-5.68-6.47-8.43-2.28-4.39-2.6-6.21-2.62-15-0.02-8.8 0.29-10.66 2.63-15.5 1.52-3.16 4.71-7.33 7.5-9.81 2.66-2.38 6.87-4.93 9.34-5.68zm-747 29.49v60h35v-120h-35zm40.26-57.75c0.29 1.24 10.04 25.2 21.65 53.25 11.62 28.05 22.39 53.93 23.93 57.5l2.8 6.5c39.97 0.55 45.11 0.33 45.98-0.69 0.61-0.72 5.64-12.78 11.17-26.81 5.54-14.02 11.64-29.77 13.57-35 1.93-5.22 4.64-13.32 6.02-18 1.38-4.67 3.01-11.2 3.63-14.5 0.61-3.3 0.98-10.05 0.81-15l-0.32-9-30-0.56c-1.17 12.83-3.06 21.74-4.96 28.06-1.9 6.33-7.26 21.85-11.92 34.5-8.05 21.88-8.52 22.85-9.61 20-0.63-1.65-5.1-13.12-9.93-25.5-4.83-12.37-11.78-30.26-15.43-39.75l-6.65-17.25h-41.28zm612.75 57.75v60h34v-120h-34zm317.36 85.44c-1.73 0.74-3.87 2.41-4.76 3.71-0.89 1.29-1.61 3.59-1.61 5.1 0 1.51 0.57 3.88 1.26 5.27 0.74 1.5 3.17 3.32 6 4.5 2.61 1.09 5.2 1.98 5.75 1.98 0.55 0 2.35 0.68 4 1.5 1.96 0.98 3.01 2.27 3.04 3.75 0.03 1.24-0.54 2.82-1.25 3.52-0.72 0.7-3.06 1.14-5.29 1-2.99-0.2-4.26-0.82-5-2.45-0.72-1.57-2.05-2.28-4.75-2.5-3.18-0.27-3.75-0.02-3.76 1.68 0 1.1 0.78 3.1 1.75 4.44 0.97 1.34 3.22 3.03 5.01 3.75 1.78 0.72 5.05 1.31 7.25 1.31 2.2 0 5.46-0.59 7.25-1.31 1.78-0.72 4.04-2.41 5-3.75 0.97-1.34 1.77-4.01 1.79-5.94 0.01-1.99-0.85-4.69-2.01-6.25-1.41-1.91-3.78-3.22-7.78-4.3-3.17-0.86-6.77-1.98-8-2.5-1.38-0.58-2.26-1.82-2.27-3.2-0.01-1.24 0.53-2.81 1.2-3.5 0.67-0.69 2.7-1.25 4.52-1.25 2.45 0 3.68 0.64 4.8 2.5 1.14 1.9 2.33 2.5 5 2.5 2.66 0 3.5-0.42 3.5-1.75 0.01-0.96-0.67-2.76-1.5-4-0.82-1.24-2.85-2.92-4.5-3.75-1.65-0.82-4.92-1.48-7.25-1.46-2.34 0.02-5.66 0.65-7.39 1.4zm-100.36 17.56v18l6.99 0.5 0.01-13.5c10.11 0.05 12.34-0.5 15-2.26 2.31-1.52 3.8-3.49 4.39-5.77 0.49-1.91 0.55-4.82 0.14-6.47-0.42-1.65-2.06-4.24-3.65-5.75-2.75-2.62-3.34-2.75-12.88-2.75h-10zm31.75 0l0.25 18h23v-6h-16v-30h-7.5zm27.25-4c0 10.44 0.38 14.76 1.5 17 0.85 1.7 3.02 3.65 5 4.5 1.92 0.82 5.63 1.5 8.25 1.5 2.99-0.01 5.95-0.75 8-2 1.78-1.1 3.92-3.35 4.75-5 1.11-2.22 1.5-6.5 1.5-16.5v-13.5h-7.25c-0.25 26.83-0.32 27.23-2.75 29.13-1.38 1.08-3.74 1.93-5.25 1.91-1.52-0.02-3.65-0.94-4.75-2.04-1.81-1.8-2-3.33-2-15.5v-13.5h-7z"/>
			<path id="Path 2" fill-rule="evenodd" class="s0" d="m1290.16 226.86l-0.16 6.14c7.44 0 10.15-0.56 10.82-1.25 0.67-0.69 1.23-2.6 1.24-4.25 0.02-1.65-0.55-3.54-1.27-4.21-0.71-0.66-3.36-1.51-5.88-1.88l-4.6-0.68z"/>
		</g>
	</g>
</svg>