<svg version="1.2" xmlns="http://www.w3.org/2000/svg" viewBox="0 0 1024 1024" width="500" height="500">
	<style>
		.s0 { opacity: 1;fill: #397747 } 
		.s1 { opacity: .99;fill: #fcce0c } 
	</style>
	<g id="Layer 1">
		<g id="Background">
			<path id="Path 0" fill-rule="evenodd" class="s0" d="m475.2 35.31c-3.18 0.23-12.99 1.24-21.81 2.26-8.83 1.02-23.84 3.2-33.37 4.85-9.53 1.65-26.85 5.42-38.49 8.39-11.65 2.96-28.68 7.97-37.86 11.13-9.17 3.15-22.17 7.95-28.87 10.65-6.71 2.7-17.97 7.65-25.02 11.01-7.06 3.36-18.9 9.41-26.31 13.46-7.41 4.05-20.98 12.17-30.15 18.06-9.18 5.89-24.48 16.65-34.01 23.92-9.53 7.27-25.63 20.9-35.78 30.3-10.16 9.4-23.95 23.13-30.65 30.52-6.69 7.38-16.35 18.64-21.45 25.02-5.11 6.37-14.18 18.73-20.16 27.46-5.98 8.72-14.94 22.73-19.9 31.12-4.96 8.39-11.76 20.75-15.12 27.46-3.36 6.71-8.59 17.97-11.63 25.02-3.04 7.05-8.19 20.51-11.45 29.9-3.25 9.4-8.18 25.88-10.96 36.62-2.77 10.74-6.56 29.14-8.41 40.89-2.85 18.04-3.48 26.94-4.04 57.36-0.43 23.21-0.12 41.42 0.85 51.26 0.84 8.39 2.93 23.22 4.66 32.95 1.73 9.74 5.2 25.39 7.71 34.79 2.5 9.4 7.18 24.77 10.38 34.17 3.21 9.4 8.45 23.41 11.64 31.12 3.19 7.72 9.37 21.18 13.74 29.91 4.36 8.72 11.6 21.91 16.07 29.29 4.48 7.38 11.88 18.92 16.46 25.63 4.57 6.71 12.47 17.42 17.56 23.8 5.08 6.38 13.43 16.26 18.56 21.97 5.12 5.7 14.88 15.86 21.69 22.56 6.81 6.71 17.28 16.53 23.28 21.82 6 5.3 17.12 14.5 24.71 20.46 8.69 6.82 14.38 10.49 15.38 9.91q1.59-0.91 0.64 0.61c-0.64 1.04 4.11 4.82 14.77 11.75 8.65 5.62 22.65 14.19 31.12 19.05 8.47 4.85 25.21 13.39 37.21 18.96 12 5.57 28.75 12.73 37.22 15.89 8.47 3.17 22.9 8.1 32.08 10.95 9.17 2.86 18.7 5.5 21.17 5.89 2.47 0.38 8.53 1.76 13.47 3.06 4.94 1.31 11.3 2.72 14.12 3.15 2.82 0.42 9.75 1.63 15.4 2.69 5.64 1.05 11.27 1.59 12.51 1.19 1.29-0.42 1.97-0.21 1.6 0.49-0.38 0.72 3.38 1.57 9.31 2.1 5.46 0.48 13.84 0.89 18.6 0.91 4.76 0.02 8.66 0.45 8.66 0.95 0 0.51 13.72 0.91 30.48 0.9 17.44-0.02 38.43-0.8 49.08-1.83 10.24-1 20.63-2.12 23.1-2.51 2.47-0.39 10.27-1.76 17.32-3.06 7.06-1.29 15.15-2.87 17.97-3.51 2.82-0.63 10.15-2.42 16.29-3.96 6.13-1.54 10.9-3.22 10.58-3.72-0.31-0.51 0.16-0.6 1.04-0.22 0.88 0.39 9.4-1.74 18.93-4.72 9.52-2.98 25.11-8.56 34.64-12.4 9.53-3.84 22.81-9.51 29.52-12.6 6.7-3.1 19.69-9.71 28.87-14.71 9.17-5 22.74-12.95 30.15-17.67 7.41-4.72 18.1-11.89 23.74-15.93 5.65-4.05 16.62-12.41 24.38-18.59 7.77-6.18 20.21-16.92 27.65-23.87 7.45-6.95 18.14-17.58 23.77-23.62 5.63-6.04 15.76-17.85 22.51-26.24 6.75-8.39 15.75-20.2 20-26.24 4.24-6.04 11.04-16.48 15.11-23.19 4.07-6.71 10.51-18.11 14.31-25.32 3.79-7.22 10.03-20.13 13.87-28.69 3.83-8.55 10.2-24.62 14.15-35.7 3.95-11.07 9.18-27.82 11.62-37.22 2.44-9.4 5.86-24.5 7.6-33.56 1.73-9.07 4.05-24.58 5.15-34.48 1.13-10.27 1.99-29.02 1.99-43.64 0-14.09-0.6-32.63-1.33-41.19-0.74-8.56-2.76-23.8-4.49-33.87-1.73-10.07-5.13-25.99-7.54-35.39-2.41-9.4-6.83-24.23-9.8-32.96-2.98-8.72-9.14-24.37-13.69-34.78-4.55-10.4-12.48-26.88-17.62-36.61-5.14-9.74-12.68-22.92-16.74-29.3-4.07-6.37-11.9-17.91-17.4-25.63-5.51-7.72-16.26-21.43-23.9-30.48-7.64-9.05-20.31-22.78-28.16-30.51-7.84-7.74-21.91-20.38-31.25-28.1-9.34-7.72-24.57-19.36-33.85-25.87-9.28-6.5-24.07-16.11-32.88-21.35-8.81-5.25-26.71-14.64-39.78-20.87-13.07-6.24-30.99-14-39.81-17.25-8.82-3.25-22.39-7.86-30.15-10.23-7.77-2.37-19.75-5.73-26.63-7.46-6.88-1.74-19.58-4.51-28.23-6.16-8.65-1.65-19.47-3.56-24.06-4.24-4.59-0.69-17.87-2.08-29.51-3.1-12.56-1.1-32.4-1.77-48.77-1.64-15.17 0.11-30.18 0.39-33.36 0.61z"/>
			<path id="Path 1" fill-rule="evenodd" class="s1" d="m492.37 219c-1.96 3.77-6.68 11.55-10.5 17.28-3.81 5.73-11.73 16.18-17.59 23.23-5.86 7.04-14.17 16.93-18.47 21.97-4.31 5.03-9.77 12.17-12.15 15.86-2.38 3.69-5.88 11.11-7.78 16.48-3.04 8.59-3.38 11.08-2.82 20.75 0.4 6.81 1.65 13.53 3.31 17.69 1.47 3.7 4.91 10.01 7.65 14.04 2.74 4.03 7.61 10.07 10.83 13.43l5.86 6.1c-3.29 9.5-6.27 14.68-8.74 17.64-2.71 3.24-7.03 6.49-10.91 8.19-4.2 1.85-8.85 2.84-13.47 2.85-4.9 0.02-9.02-0.88-13.47-2.94-3.92-1.8-9.93-6.5-15.4-12.03-4.94-4.99-11.43-13.13-14.42-18.1-2.99-4.97-7.44-13.43-9.88-18.8-2.44-5.37-5.93-14.71-7.76-20.75-1.83-6.04-4.15-16.2-5.16-22.58-1.01-6.38-1.91-17.09-2.01-23.8-0.16-11-0.36-11.96-2.04-9.76-1.02 1.34-10.42 18.64-20.89 38.44-10.47 19.81-22.24 43.7-26.16 53.09-3.93 9.4-8.37 21.49-9.88 26.86-1.85 6.57-2.98 15.14-3.46 26.24-0.43 9.85-0.14 19.66 0.71 24.41 0.79 4.36 2.55 11.23 3.92 15.25 1.37 4.03 3.47 9.52 4.68 12.21 1.21 2.68 4.04 7.63 6.28 10.98l4.09 6.1c28.73 6.05 43.99 8.91 52.46 10.26 8.47 1.35 24.06 3.54 34.65 4.87 10.59 1.33 23.29 2.76 28.23 3.18l8.98 0.76c1.38-5.32 1.55-11.8 1.27-17.84-0.29-6.08-1.88-15.9-3.56-21.97-1.67-6.05-3.28-11.75-3.58-12.69-0.3-0.93-2.35-5.32-4.56-9.76-2.22-4.44-3.95-8.2-3.85-8.37 0.09-0.17 4.21 0.85 9.15 2.26 4.94 1.41 13.57 4.84 19.18 7.62 6.39 3.18 13.74 8.26 19.68 13.61 5.21 4.7 10.43 10.59 11.61 13.09 1.18 2.5 2.57 4.56 3.1 4.58 0.53 0.02 0.96-11.37 0.95-25.29 0-13.93 0.57-28.21 1.29-31.74 0.71-3.52 2.88-10.02 4.82-14.44 2.21-5.02 6.22-10.85 10.71-15.56l7.19-7.53c1.27 18.92 2.53 27.71 3.62 31.73 1.09 4.03 3.35 10.07 5.02 13.43 1.77 3.56 5.37 7.88 8.62 10.36 4.48 3.41 6.97 4.35 12.64 4.77 5.81 0.43 8.08-0.02 12.83-2.55 3.18-1.69 7.9-5.76 10.5-9.05 2.59-3.28 6.42-9.54 8.51-13.9 2.08-4.37 5.91-14.53 8.51-22.58 2.6-8.06 7.14-19.54 10.1-25.51 4.6-9.3 5.49-10.44 6.2-7.94 0.46 1.62 0.9 8.84 0.97 16.05 0.07 7.22 0.97 19.3 2.01 26.86 1.04 7.55 2.25 16.2 2.69 19.22 0.44 3.02 1.08 6.86 1.42 8.54 0.34 1.68 1.01 8.82 1.48 15.87 0.54 7.95 0.3 16.29-0.63 21.97-0.82 5.03-2.32 11.35-3.34 14.03-1.01 2.69-3.48 7.36-5.48 10.38-2 3.02-5.56 7.27-7.89 9.46-2.34 2.18-4.25 4.1-4.24 4.27 0 0.17 1.88 0.18 4.17 0.04 2.29-0.15 11.96-0.88 21.48-1.62 9.53-0.75 27.43-2.69 39.78-4.33 12.35-1.63 27.66-3.8 34.01-4.82 6.35-1.02 17.9-3.29 25.66-5.04 12.57-2.84 14.59-3.67 18.42-7.59 2.37-2.43 5.99-7.7 8.06-11.73 2.06-4.03 4.61-11.99 5.66-17.7 1.73-9.41 1.71-11.79-0.29-25.63-1.2-8.39-2.14-21.57-2.07-29.29 0.08-7.89 1.02-17.78 2.15-22.58 1.12-4.7 2.45-9.92 2.97-11.59 0.64-2.05-4.1 1.81-14.41 11.74-12.85 12.38-16.93 15.52-24.98 19.25-6.88 3.18-12.73 4.84-20.53 5.84-6 0.76-12.5 1.03-14.44 0.59l-3.52-0.81c3.19-7.09 4.93-11.9 5.91-15.26 0.99-3.35 2.16-10.77 2.61-16.47 0.48-6.1 0.18-14.65-0.73-20.75-0.85-5.71-3.46-15.87-5.8-22.58-2.33-6.71-6.4-16.32-9.03-21.36-2.64-5.03-8.05-13.81-12.03-19.5-3.98-5.7-11.86-14.97-17.51-20.62-5.64-5.65-14.88-13.68-20.53-17.84-5.64-4.16-13.58-9.58-17.64-12.03-4.06-2.45-7.52-4.45-7.7-4.44-0.18 0.01 0.66 3.72 1.85 8.24 1.19 4.52 2.19 12.61 2.22 17.98 0.03 6.84-0.65 11.23-2.26 14.65-1.61 3.41-3.63 5.4-6.71 6.61-2.85 1.12-6.9 1.51-11.46 1.1-4.28-0.38-9.81-2.02-14.05-4.17-3.85-1.95-10.41-6.56-14.59-10.26-4.19-3.69-10.68-11.1-14.44-16.47-3.76-5.37-8.85-14.16-11.31-19.53-2.46-5.37-5.94-14.25-7.73-19.72l-3.27-9.96zm-206.06 301.23c0.36 2.61 1.82 8.58 3.25 13.28 1.44 4.7 4.45 12.39 6.7 17.09 2.25 4.7 6.46 11.84 9.37 15.87 2.91 4.02 7.35 9.38 9.87 11.89l4.57 4.58c-9.91 43.04-17.71 77.5-23.73 104.35-6.02 26.86-10.94 49.79-10.93 50.96 0.01 1.57 2.47 2.89 9.32 4.97 5.12 1.57 10.1 3.08 11.07 3.36 1.03 0.3 2.19-0.75 2.78-2.53 0.56-1.68 4.58-13.76 8.92-26.85 4.35-13.09 14.28-42.48 22.07-65.3 7.79-22.82 14.39-41.63 14.66-41.8 0.27-0.17 2.94 1.24 5.94 3.13 3 1.9 10.65 5.97 17.01 9.05 6.35 3.09 18.19 7.79 26.3 10.46 8.12 2.66 21.4 6.27 29.52 8.01 8.11 1.75 21.11 4.06 28.87 5.14 7.76 1.08 15.7 2.05 17.64 2.16 1.94 0.1 6.42 0.33 9.95 0.49l6.41 0.31-0.18 56.75 27.13 0.61 0.64-56.75c18.9-1.36 30.74-2.62 38.5-3.68 7.76-1.07 20.75-3.33 28.87-5.04 8.12-1.71 21.98-5.59 30.8-8.62 8.82-3.03 20.66-7.74 26.3-10.47 5.65-2.73 12.72-6.51 15.72-8.41 3-1.9 5.62-3.31 5.81-3.14 0.19 0.17 2.75 7.44 5.69 16.17 2.94 8.73 13.25 39.21 22.91 67.74 9.66 28.53 17.79 52.14 18.05 52.48 0.27 0.33 5.61-1.04 11.86-3.05l11.37-3.66c-7.72-33.11-12-52.06-14.48-63.47-2.49-11.41-5.37-24.32-6.42-28.68-1.04-4.36-4.78-20.7-8.29-36.31l-6.4-28.38c7.62-8.98 11.78-14.34 14.16-17.7 2.38-3.35 6.18-10.22 8.44-15.25 2.27-5.04 5.47-14.22 7.12-20.4 1.65-6.19 2.72-11.53 2.36-11.88-0.35-0.35-14.79 1.84-32.08 4.86-17.29 3.02-39.23 6.56-48.76 7.88-9.53 1.31-24.83 3.2-34 4.2-9.18 0.99-21.88 2.15-28.23 2.56-6.36 0.42-13.29 1.06-15.4 1.42-2.12 0.36-26.66 0.92-54.54 1.24-30.79 0.36-59 0.06-71.86-0.77-11.64-0.75-31.57-2.47-44.27-3.83-12.7-1.36-24.54-2.69-26.31-2.97-1.76-0.27-12.15-1.9-23.09-3.61-10.94-1.71-30.29-5.09-42.99-7.52-12.7-2.43-24.34-4.7-25.86-5.05-2.55-0.57-2.72-0.25-2.13 4.11zm101.51 174.69c-1.81 1.85-4.22 5.14-5.36 7.33-1.14 2.18-1.85 4.37-1.57 4.88 0.28 0.5 6.35 3.11 13.48 5.8 7.13 2.68 12.97 5.29 12.97 5.79-0.01 0.51-1.88 0.41-4.18-0.22-2.29-0.62-8.5-2.35-13.79-3.84-5.3-1.48-10.64-2.35-11.87-1.91-1.32 0.46-2.25 2.04-2.25 3.84 0 2.68 1.35 3.58 11.23 7.49 6.18 2.44 18.73 6.77 27.91 9.61 9.17 2.85 20.43 5.88 25.02 6.75 7.87 1.48 9.15 1.37 22.46-1.88 7.76-1.9 14.69-3.88 15.4-4.41 0.71-0.53-3.02-2.12-8.34-3.55-5.3-1.43-10.78-3.11-12.19-3.73l-2.57-1.14c3.98 0.8 10.04 1.71 16.04 2.52 6 0.82 14.23 1.13 18.29 0.71 4.05-0.43 7.66-1.33 8.02-2 0.35-0.67-1.24-2.52-3.53-4.12-2.3-1.59-5.33-3.48-6.74-4.19-1.41-0.71-17.58-5.69-35.93-11.07-18.35-5.39-37.69-11.2-42.99-12.92-5.29-1.72-11.1-3.12-12.92-3.11-1.92 0.01-4.66 1.41-6.59 3.37zm203.01 8.24c-19.41 6.25-59.54 19.13-89.18 28.62-29.64 9.48-65.45 20.55-79.56 24.59-14.12 4.04-27.97 8.2-30.8 9.25l-5.13 1.9c11.65 11.39 12.5 11.82 15.72 10.74 1.94-0.64 12.48-3.66 23.42-6.71 10.94-3.04 20.18-5.27 20.53-4.94 0.35 0.33-1.96 1.62-5.13 2.87-3.18 1.25-8.09 3.02-10.91 3.93-2.82 0.91-5.42 1.73-5.78 1.81-0.35 0.09-1.65 0.53-2.88 0.97-1.24 0.45-2.96 0.4-3.84-0.1q-1.58-0.91-0.64 0.61c0.6 0.96 0.01 1.75-1.62 2.13-1.41 0.34-3.28 0.2-4.16-0.3-0.94-0.55-1.23-0.42-0.7 0.3 0.49 0.67-1.25 2.23-3.86 3.46-4.64 2.18-4.73 2.35-3.81 7.32 0.52 2.8 1.1 5.22 1.29 5.38 0.18 0.16 4.38-1.01 9.32-2.59 4.94-1.58 15.91-5.49 24.38-8.68 8.47-3.2 21.46-8.7 28.87-12.24 7.41-3.53 15.21-7.34 17.32-8.45 2.12-1.12 5.37-2.96 7.23-4.1 1.85-1.14 8.21-4.72 14.11-7.96 5.91-3.25 15.94-7.99 22.29-10.53 6.35-2.55 14.73-5.57 18.61-6.71 3.88-1.15 7.63-1.87 8.34-1.6 0.71 0.26-9.11 5.39-21.81 11.39-12.71 5.99-23.39 11.18-23.74 11.52-0.36 0.35-3.1 2.13-6.1 3.97-3 1.84-5.74 3.35-6.09 3.35-0.36 0-2.81 1.42-5.46 3.17-2.65 1.74-12.03 6.61-20.85 10.82-8.82 4.21-23.26 10.24-32.08 13.42-8.82 3.17-20.08 7.34-25.02 9.26-6.73 2.62-9.4 4.36-10.62 6.91-0.9 1.87-1.33 3.68-0.94 4.01 0.38 0.34 3.43-0.1 6.77-0.97 3.34-0.87 20.51-5.73 38.15-10.8 17.64-5.07 37.57-10.84 44.27-12.83 6.71-1.99 29.23-8.87 50.05-15.28 20.82-6.42 38.43-11.79 39.13-11.95 0.71-0.15 2.73-0.84 4.49-1.54 1.77-0.7 11.87-3.84 22.46-6.97 10.59-3.14 22.71-6.84 26.95-8.22 4.23-1.37 9.43-3.72 11.55-5.21 2.11-1.48 4.71-4.44 5.77-6.58 1.06-2.13 1.5-4.28 0.97-4.78-0.52-0.5-3.98 0.31-7.7 1.8-3.71 1.49-12.23 4.34-18.93 6.35-6.71 2-18.54 5.27-26.31 7.26-7.76 2-14.4 3.4-14.76 3.11-0.35-0.28-0.35-0.67 0-0.86 0.36-0.2 10.17-3.27 21.82-6.82 11.64-3.56 25.5-8.2 30.8-10.31 5.29-2.12 10.7-4.68 12.02-5.7 1.63-1.26 2.14-2.71 1.6-4.59-0.43-1.51-1.51-2.74-2.4-2.73-0.88 0.01-8.53 1.96-17 4.33-8.47 2.37-15.54 4.15-15.71 3.95-0.17-0.2 4.74-2.41 10.91-4.91 6.17-2.5 13.09-5.11 15.39-5.79 2.29-0.69 4.17-1.81 4.17-2.48 0-0.67-0.87-3.14-1.93-5.49-1.05-2.35-3.36-5.64-5.13-7.32-2.35-2.24-4.5-3.02-8.02-2.94-2.65 0.06-20.69 5.22-40.1 11.48zm-215.38 23.67c-0.11 1.43 1.66 4.42 3.97 6.73 2.44 2.43 7.65 5.45 12.51 7.25 4.59 1.7 11.81 3.97 16.04 5.04 5.49 1.4 10.74 1.77 18.29 1.3 5.82-0.36 10.58-1.13 10.56-1.71-0.01-0.57-12.86-5.19-28.55-10.27-15.69-5.07-29.45-9.6-30.57-10.07-1.48-0.61-2.1-0.13-2.25 1.73zm222.8 31.46c-0.39 0.45-1.79 0.92-3.1 1.05-1.32 0.13-3.26 0.57-4.32 0.98-1.06 0.41-3.66 1.37-5.77 2.13-3.56 1.28-3.66 1.47-1.29 2.46 1.41 0.59 4.3 1.71 6.42 2.5 2.12 0.78 4.43 1.54 5.13 1.69 0.71 0.15 7.64 1.98 15.4 4.08 7.76 2.09 14.98 3.79 16.04 3.78 1.06-0.01 4.09-1.93 6.74-4.26 2.64-2.33 4.45-4.65 4.01-5.16-0.44-0.5-8.38-2.97-17.64-5.49-9.27-2.52-17.76-4.58-18.88-4.58-1.12 0-2.35 0.37-2.74 0.82zm-29.88 10.33c-3.52 1.37-6.56 2.57-6.75 2.68-0.18 0.12 9.92 4.12 22.46 8.91 12.53 4.79 25.97 9.66 29.85 10.83 6.82 2.06 7.11 2.05 8.68-0.16 0.9-1.26 1.62-3.52 1.61-5.03-0.02-1.51-1.32-3.52-2.91-4.47-1.59-0.95-8.38-3.46-15.08-5.59-6.71-2.13-12.91-4.1-13.8-4.38-0.88-0.28-1.74-0.46-1.92-0.4-0.18 0.06-3.5-1.04-7.38-2.44-3.88-1.4-7.34-2.52-7.7-2.49-0.35 0.04-3.53 1.18-7.06 2.54zm-192.72 5.22c-3.25 2.66-3.61 3.72-3.6 10.68 0 5.91 0.84 9.39 3.53 14.76 2.27 4.52 5 7.87 7.69 9.42 2.3 1.32 5.47 2.42 7.06 2.44 1.97 0.02 3.08-0.84 3.51-2.71 0.34-1.51 0.64-5.77 0.66-9.46 0.01-3.69-0.92-9.73-2.07-13.43-1.35-4.29-3.66-8.13-6.43-10.67-2.38-2.19-4.87-3.97-5.54-3.97-0.66 0-2.83 1.32-4.81 2.94zm263.46 1.06c-2.21 2.19-4.87 6.73-5.93 10.06-1.06 3.34-1.88 9.37-1.82 13.4 0.06 4.03 0.78 8.56 1.6 10.07 1.19 2.17 2.24 2.6 5.03 2.04 1.94-0.38 4.9-1.89 6.58-3.35 1.69-1.46 4.42-5.4 6.09-8.76 2.07-4.19 3.03-8.31 3.04-13.12 0-3.86-0.66-8.25-1.47-9.76-0.81-1.51-2.11-3.15-2.88-3.65-0.78-0.49-2.5-0.9-3.83-0.91-1.32-0.01-4.21 1.78-6.41 3.98zm-103.46 4.45c-10.45 3.22-14.01 4.77-12.19 5.32 1.41 0.43 17.29 4.71 35.29 9.52 18 4.8 39.94 10.59 48.76 12.86 8.82 2.26 16.48 4.12 17.01 4.12 0.52 0 0.96-0.82 0.96-1.83 0-1-0.72-3.27-1.61-5.02-0.88-1.76-3.04-3.91-4.81-4.77-1.76-0.87-17.5-6.84-34.97-13.28-17.46-6.44-32.19-11.66-32.72-11.59-0.53 0.07-7.6 2.17-15.72 4.67z"/>
		</g>
	</g>
</svg>