<svg version="1.2" xmlns="http://www.w3.org/2000/svg" viewBox="0 0 1000 169" width="1000" height="169">
	<style>
		.s0 { opacity: .98;fill: #161717 } 
	</style>
	<g id="Layer 1">
		<path id="Path 0" fill-rule="evenodd" class="s0" d="m672.54 8.81c3.46-0.03 8.42 0.49 11.01 1.15 2.6 0.66 6.64 2.52 8.99 4.13 2.34 1.62 5.46 4.7 6.93 6.86 1.47 2.17 3.37 6.24 4.23 9.05 0.86 2.82 1.78 8.66 2.04 12.98 0.27 4.73 0.06 10.53-0.53 14.55-0.54 3.68-1.67 9.34-2.53 12.58-0.86 3.25-2.95 8.74-4.65 12.19-1.71 3.47-5.04 8.86-11.73 17.7l4.53 2.19c2.48 1.21 6.92 2.89 15.2 5.28l-0.53 8.65c-0.29 4.76-0.68 8.83-0.86 9.05-0.19 0.22-3.59-0.04-7.57-0.57-3.97-0.53-9.52-1.71-12.34-2.62-2.81-0.91-7.24-2.7-14.55-6.27l-9.63 4.72c-5.3 2.61-9.99 4.74-10.43 4.74-0.43 0-2.55-3.1-4.71-6.88-2.17-3.79-3.93-7.33-3.94-7.87 0-0.54 2.75-2.54 6.1-4.45 3.35-1.92 6.75-3.95 7.55-4.53 1.4-1 1.34-1.25-1.27-5.37-1.5-2.38-3.84-6.54-5.19-9.24-1.36-2.71-3.37-7.31-4.47-10.22-1.09-2.93-2.69-8.77-3.53-12.99-0.99-4.89-1.55-10.87-1.55-16.51 0-5.45 0.47-10.67 1.22-13.57 0.67-2.59 1.88-6.13 2.7-7.87 0.82-1.73 2.87-4.74 4.55-6.68 1.68-1.95 4.62-4.49 6.53-5.65 1.92-1.16 5.43-2.64 7.81-3.28 2.38-0.66 7.16-1.21 10.62-1.25zm-7.87 26.9c-0.68 2.35-1.18 7.16-1.17 11.2 0.02 3.89 0.38 9.56 0.81 12.59 0.44 3.02 1.35 7.27 2.03 9.44 0.69 2.16 2.36 6.32 3.73 9.26 1.36 2.94 2.74 5.33 3.06 5.31 0.33-0.02 1.65-2.24 2.94-4.94 1.29-2.71 3.1-7.39 4.01-10.42 1.18-3.92 1.78-8.56 2.07-16.13 0.25-6.38 0.06-12.34-0.46-14.94-0.51-2.53-1.61-5.06-2.65-6.11-1.01-1.01-3.15-1.97-4.93-2.2-2.34-0.32-3.79-0.02-5.7 1.19-1.93 1.22-2.84 2.62-3.74 5.75zm-402.29-25.37h28.31v25.17h-28.31zm266.62 0h25.17l0.01 46.6c0.01 36.01 0.24 47.05 1.01 48.56 0.62 1.23 1.88 2.12 5.67 2.77l0.39 8.13c0.21 4.46 0.25 8.26 0.07 8.45-0.19 0.17-4.34 0.32-9.24 0.32-5.58 0-9.88-0.39-11.47-1.04-1.41-0.57-3.8-2.47-8.07-7.39l-3.54 2.74c-1.94 1.5-4.6 3.27-5.89 3.93-1.31 0.68-4.13 1.69-6.3 2.26-2.16 0.58-7.47 1.06-11.8 1.06-5.14 0.01-9.63-0.47-12.97-1.38-2.81-0.78-6.88-2.44-9.05-3.69-2.16-1.26-5.82-4.08-8.12-6.27-2.47-2.35-5.24-6.08-6.76-9.1-1.41-2.81-2.8-6.97-3.6-13.37h-31.07c-20.18 0-31.06 0.28-31.06 0.79 0 0.43 0.65 2.11 1.45 3.73 0.81 1.63 2.84 4.11 4.53 5.51 1.68 1.41 4.65 3.09 6.6 3.75 1.95 0.65 5.84 1.18 8.65 1.18 2.81 0 6.97-0.53 9.24-1.18 2.27-0.66 5.28-2.24 9.25-5.84l20.84-0.08-0.5 1.78c-0.27 0.97-1.39 3.54-2.49 5.7-1.1 2.16-3.62 5.55-5.6 7.54-1.98 1.98-5.81 4.72-8.52 6.09-2.7 1.37-7.13 3.02-9.83 3.66-2.71 0.64-8.64 1.18-13.17 1.18-5.88 0.01-9.91-0.44-13.97-1.56-3.13-0.86-7.02-2.24-8.65-3.06-1.62-0.81-4.81-2.93-7.08-4.72-2.27-1.77-5.56-5.45-7.31-8.15-1.75-2.7-3.9-7.21-4.78-10.02-1.09-3.49-1.63-7.5-1.68-12.59-0.07-5.14 0.34-8.94 1.32-12.19 0.77-2.59 2.04-5.96 2.81-7.47 0.77-1.52 2.86-4.62 4.64-6.88 1.78-2.27 5.44-5.57 8.15-7.32 2.7-1.76 7.39-3.96 10.42-4.9 4.18-1.28 7.5-1.69 13.76-1.69 4.92 0.01 10.65 0.55 14.16 1.35 3.39 0.77 7.91 2.53 10.62 4.13 2.59 1.55 6.03 4.11 7.62 5.71 1.61 1.6 4.18 5.04 5.71 7.63 1.54 2.59 3.24 6.59 3.78 8.86 0.54 2.28 1.24 4.14 1.57 4.13 0.32-0.01 0.76-1.52 0.98-3.35 0.21-1.84 1.53-5.65 2.93-8.46 1.4-2.82 4.4-6.96 6.69-9.24 2.28-2.27 6.36-5.23 9.06-6.59 2.7-1.34 7.22-2.93 10.03-3.52 2.81-0.59 7.24-1.07 9.83-1.06 2.6 0.01 6.85 0.48 9.44 1.04 2.6 0.56 6.49 1.81 8.65 2.77 2.16 0.96 4.74 2.53 7.51 5.2l-0.02-22.22zm-119.88 56.38c-1.7 1.21-3.9 3.8-4.9 5.74-0.99 1.95-1.81 3.98-1.82 4.52-0.02 0.76 4.66 0.99 20.82 0.99h20.84c-0.75-2.75-1.54-4.76-2.25-6.23-0.71-1.48-2.35-3.5-3.65-4.48-1.3-0.98-3.78-2.37-5.5-3.08-1.74-0.71-5.28-1.44-7.87-1.61-2.74-0.19-6.37 0.15-8.65 0.81-2.16 0.61-5.33 2.12-7.02 3.34zm85.37 3.29c-1.46 1.13-3.59 3.65-4.72 5.6-1.81 3.12-2.06 4.37-2.04 10.62 0.02 5.6 0.37 7.73 1.67 10.22 0.9 1.73 2.83 4.17 4.3 5.4 1.46 1.25 3.72 2.8 5.02 3.45 1.3 0.64 4.84 1.36 7.87 1.58 3.89 0.28 6.88 0 10.22-0.96 3.66-1.05 5.52-2.18 8.27-5.02 1.98-2.04 3.98-5.05 4.51-6.81 0.53-1.73 0.96-5.36 0.97-8.06 0.01-2.71-0.54-6.24-1.21-7.87-0.68-1.62-2.04-4.01-3.04-5.31-0.98-1.29-3.71-3.38-6.04-4.64-3.34-1.79-5.5-2.34-10.15-2.57-4.14-0.2-6.95 0.1-9.43 1.01-1.95 0.71-4.74 2.22-6.2 3.36zm227.34-59.54c2.9 0.16 5.19 0.8 6.59 1.82 1.17 0.87 2.88 2.58 3.8 3.79 1.26 1.68 1.67 3.36 1.67 6.83 0 3.44-0.42 5.17-1.64 6.83-0.91 1.21-2.86 3.02-4.33 4.01-2.04 1.35-3.78 1.79-7.2 1.77-2.92-0.02-5.65-0.58-7.67-1.6-1.74-0.86-3.84-2.72-4.7-4.13-0.97-1.59-1.57-4.03-1.59-6.49-0.04-2.82 0.45-4.7 1.75-6.68 0.99-1.51 3.38-3.57 5.33-4.57 2.74-1.42 4.53-1.77 7.99-1.58zm106.83-0.14h25.17l-0.07 43.65 1.81-1.41c0.99-0.76 4.1-2.53 6.91-3.92 4.91-2.43 5.49-2.53 14.55-2.51 8.09 0.02 10.11 0.3 14.16 1.92 3.06 1.22 6.14 3.28 8.75 5.87 2.77 2.74 4.59 5.45 5.83 8.7 1.63 4.26 1.85 6.48 2.26 22.85 0.39 15.41 0.67 18.44 1.84 20.25 1.06 1.64 2 2.12 6.88 2.12v17.31l-10.48-0.2c-9.74-0.18-10.7-0.33-13.57-2.21-1.91-1.24-3.83-3.5-5.05-5.9-1.89-3.73-1.98-4.61-2.36-22.37-0.39-17.73-0.49-18.64-2.36-22.37-1.49-2.95-2.73-4.22-5.11-5.29-1.79-0.79-5.02-1.4-7.48-1.4-2.48 0-5.65 0.6-7.46 1.42-1.73 0.78-4.12 2.54-5.32 3.91-1.18 1.38-2.51 3.82-2.94 5.44-0.43 1.64-0.78 13.23-0.79 48.97h-25.17zm-621.34 9.43h27.52v27.54l25.57 0.39 0.39 17.69-25.96-0.39 0.01 18.48c0 17.09 0.12 18.68 1.58 21.04 1.02 1.67 2.59 2.87 4.51 3.45 1.75 0.53 5.04 0.7 8.06 0.41 2.82-0.27 6.62-0.76 11.83-1.69l-0.03 17.69-6.09 1.29c-4.63 0.97-8.85 1.19-17.5 0.91-9.18-0.29-12.26-0.69-15.73-2.04-2.39-0.93-5.64-3.02-7.24-4.66-1.6-1.63-3.73-4.74-4.72-6.9-1.73-3.77-1.82-4.85-2.2-48.38h-8.66v-17.29h8.66zm710.26 0.75l27.09 0.43 0.39 26.35 25.57-0.01 0.59 4.92c0.33 2.71 0.6 6.78 0.59 13.18h-26.75l0.4 38.42 1.97 2.05c1.08 1.13 3.2 2.27 4.72 2.54 1.51 0.27 5.75 0.1 9.43-0.39 3.68-0.48 7.31-1.06 8.07-1.3 1.25-0.38 1.37 0.37 1.37 8.62 0 7.96-0.17 9.09-1.37 9.41-0.76 0.19-3.86 0.77-6.89 1.29-3.41 0.57-9.54 0.77-16.12 0.5-7.51-0.3-11.77-0.85-14.55-1.88-2.28-0.84-5.44-2.94-7.52-4.99-2.13-2.09-4.19-5.14-5.07-7.47-1.3-3.44-1.51-6.68-1.96-47.59h-10.23v-17.3h10.23zm-841.61 25.56c3.68 0.19 7.92 0.69 9.44 1.14 1.51 0.43 4.51 1.96 6.66 3.39 2.15 1.43 4.99 4.01 6.33 5.74 1.33 1.73 3.25 5.27 4.26 7.87 1.64 4.19 1.91 6.62 2.44 21.63 0.33 9.3 0.94 17.97 1.35 19.26 0.42 1.31 1.65 4.14 2.74 6.3 1.1 2.16 3.61 5.88 5.58 8.26 3.44 4.14 3.52 4.34 1.86 4.83-0.95 0.29-5.97 0.56-11.17 0.61-5.37 0.05-10.62-0.31-12.18-0.83-1.52-0.51-3.73-1.57-4.92-2.38-1.19-0.79-3.14-3.13-6.49-8.92l-0.39-19.27c-0.36-17.44-0.55-19.52-1.97-21.94-0.86-1.47-2.58-3.41-3.79-4.32-1.68-1.25-3.61-1.72-7.87-1.89-4.71-0.19-6.16 0.08-8.75 1.58-1.7 0.99-3.83 3.03-4.71 4.55-1.53 2.6-1.63 4.13-2.01 53.48h-24.38v-77.86h23.59l-0.03 7.47 2.18-2.07c1.2-1.14 3.32-2.65 4.73-3.34 1.41-0.7 4.41-1.81 6.69-2.45 2.78-0.8 6.3-1.07 10.81-0.84zm72.75-0.03c5.49 0.18 9.29 0.76 12.59 1.94 2.59 0.92 6.22 2.74 11.4 6.4v-7.08h23.6l-0.01 26.94c-0.01 16.09 0.3 27.96 0.78 29.49 0.44 1.41 1.51 2.91 2.37 3.34 0.87 0.44 2.64 0.79 6.29 0.79v17.3l-9.24-0.01c-5.1-0.01-10.61-0.45-12.31-0.98-1.9-0.6-4.15-2.24-8.73-7.63l-1.57 1.64c-0.86 0.9-3.17 2.56-5.11 3.69-1.95 1.13-5.58 2.68-8.06 3.46-2.97 0.92-7.03 1.41-11.8 1.41-4 0.01-9.31-0.53-11.8-1.18-2.48-0.65-6.74-2.3-9.44-3.67-2.7-1.36-6.72-4.29-8.92-6.49-2.2-2.2-4.91-5.77-6.01-7.93-1.1-2.16-2.65-6.06-3.43-8.65-0.99-3.27-1.42-7.28-1.42-12.98 0-5.7 0.43-9.72 1.42-12.98 0.78-2.59 2.15-6.13 3.04-7.87 0.88-1.73 3.46-5.09 5.73-7.47 2.26-2.38 6.01-5.36 8.33-6.63 2.32-1.27 6.52-2.94 9.32-3.72 3.77-1.03 7.2-1.33 12.98-1.13zm-10.07 25.05c-2.1 2.07-3.89 4.83-4.72 7.28-0.75 2.16-1.35 5.52-1.35 7.47 0 1.95 0.54 5.31 1.2 7.47 0.66 2.16 2.09 5.08 3.16 6.49 1.07 1.4 3.98 3.52 6.47 4.71 3.68 1.74 5.63 2.14 10.43 2.14 4.85 0 6.59-0.37 9.83-2.07 2.16-1.15 4.89-3.09 6.05-4.31 1.17-1.23 2.73-3.66 3.47-5.39 0.83-1.92 1.35-5.13 1.34-8.26-0.02-3.64-0.56-6.33-1.91-9.37-1.03-2.35-3.15-5.36-4.71-6.69-1.56-1.33-4.74-3.05-7.08-3.81-2.33-0.77-5.84-1.37-7.78-1.33-1.95 0.04-5.22 0.58-7.27 1.2-2.37 0.72-4.99 2.35-7.13 4.47zm460.74-25.23c3.03-0.06 7.99 0.42 11.01 1.07 3.03 0.64 7.73 2.23 10.43 3.52 2.7 1.3 6.77 4.08 9.04 6.18 2.27 2.11 5.27 5.92 6.65 8.46 1.38 2.55 3.25 7.46 4.14 10.91 0.89 3.47 1.61 8.69 1.6 16.92h-61.35l0.46 1.77c0.25 0.97 1.4 3.14 2.55 4.83 1.16 1.68 3.87 4.07 6.03 5.31 2.84 1.62 5.47 2.38 9.44 2.74 3.42 0.3 7.3 0.1 10.23-0.54 3.06-0.66 5.89-1.94 11.4-6.25h9.83c9.82 0 9.83 0 9.35 1.77-0.28 0.97-1.03 2.83-1.67 4.13-0.65 1.3-2.48 4.13-4.08 6.29-1.6 2.17-4.84 5.21-7.19 6.77-2.35 1.56-6.39 3.64-8.99 4.62-3.61 1.36-6.94 1.87-14.15 2.16-7.13 0.28-10.79 0.06-14.95-0.93-3.03-0.71-7.81-2.4-10.62-3.75-3.27-1.56-6.81-4.17-9.84-7.23-2.6-2.63-5.67-6.56-6.83-8.72-1.16-2.16-2.66-6.05-3.34-8.65-0.67-2.59-1.23-7.73-1.23-11.4 0-3.94 0.57-8.79 1.39-11.8 0.77-2.81 2.63-7.18 4.13-9.72 1.51-2.54 4.51-6.21 6.68-8.15 2.16-1.96 5.52-4.36 7.47-5.34 1.95-0.99 5.49-2.35 7.86-3.02 2.38-0.67 5.39-1.36 6.69-1.53 1.3-0.18 4.84-0.37 7.86-0.42zm-13.58 22.06c-1.41 1.42-3.1 3.73-3.74 5.13-0.64 1.41-1.16 3.1-1.16 3.74 0 1.02 2.79 1.18 20.45 1.18 17.65 0 20.45-0.16 20.45-1.18 0-0.64-0.66-2.51-1.47-4.13-0.81-1.62-2.76-4.1-4.33-5.5-1.57-1.41-4.71-3.09-6.98-3.75-2.27-0.65-5.9-1.17-8.06-1.15-2.17 0.02-5.88 0.72-8.26 1.56-2.38 0.84-5.48 2.68-6.9 4.1zm188.19-22.13c2.6-0.03 7.02 0.35 9.83 0.84 2.81 0.49 6.53 1.51 8.26 2.28 1.73 0.76 4.38 2.31 8.65 5.54l0.39-7.15h23.6l-0.01 38.74c-0.01 31.49-0.23 39.65-1.18 43.65-0.64 2.7-2.28 7.12-3.64 9.83-1.4 2.79-4.39 6.78-6.9 9.24-2.43 2.38-6.72 5.46-9.52 6.84-2.8 1.39-7.4 3.13-10.21 3.88-3.5 0.94-7.96 1.36-14.15 1.33-5.59-0.02-11.09-0.52-14.36-1.32-2.92-0.71-7.52-2.41-10.23-3.78-2.7-1.37-6.62-4.11-8.72-6.09-2.12-2.03-4.79-5.69-6.06-8.33-1.25-2.6-2.45-5.7-2.69-6.89-0.41-2.13-0.37-2.16 3.71-2.21 2.27-0.03 7.4-0.47 11.4-0.99 4-0.5 7.28-0.66 7.28-0.33 0 0.32 1.15 1.87 2.56 3.44 1.4 1.57 3.79 3.47 5.3 4.23 1.52 0.76 3.82 1.6 5.12 1.89 1.29 0.28 4.3 0.54 6.69 0.58 2.37 0.04 6.26-0.48 8.64-1.16 2.38-0.68 5.74-2.43 7.47-3.89 1.74-1.46 3.9-4.22 4.83-6.14 0.92-1.91 1.89-5.33 2.65-11.73l-3.74 2.81c-2.06 1.54-6.03 3.53-8.85 4.41-3.65 1.14-7.35 1.6-12.97 1.63-5.09 0.03-9.68-0.45-12.98-1.33-2.82-0.75-6.88-2.3-9.05-3.45-2.16-1.15-5.87-4.05-8.26-6.44-2.49-2.52-5.37-6.51-6.79-9.45-1.37-2.8-2.88-6.95-3.35-9.23-0.48-2.27-0.87-7.22-0.87-11 0-3.79 0.53-8.92 1.18-11.41 0.65-2.49 2.3-6.73 3.66-9.44 1.37-2.7 4.28-6.69 6.49-8.86 2.21-2.18 6.04-4.92 8.54-6.1 2.48-1.18 6.55-2.64 9.04-3.26 2.49-0.62 6.65-1.14 9.24-1.18zm-8.65 25.47c-1.3 1.33-3.06 3.82-3.92 5.54-1.18 2.34-1.57 4.74-1.58 9.43-0.01 5.15 0.35 7.01 1.96 10.22 1.12 2.23 3.41 5.03 5.31 6.49 1.84 1.41 4.85 2.95 6.68 3.41 1.85 0.47 5.47 0.86 8.06 0.86 3.24 0.01 6.07-0.57 8.99-1.83 2.55-1.11 5.33-3.11 6.92-4.99 1.46-1.73 3.21-5.1 3.9-7.47 0.82-2.87 1.06-5.65 0.74-8.26-0.28-2.17-1.32-5.71-2.31-7.87-0.99-2.16-3.02-4.86-4.51-6-1.49-1.14-3.86-2.65-5.27-3.34-1.41-0.7-5.12-1.46-8.26-1.68-4.7-0.33-6.46-0.1-10.03 1.34-2.37 0.96-5.38 2.83-6.68 4.15zm-501.4-23.96h25.95v77.86h-25.95zm59.06 0.39l4.13 9.83c2.28 5.41 6.95 16.83 10.39 25.36 3.43 8.54 6.42 15.54 6.64 15.56 0.22 0.02 2.78-6.09 5.69-13.56 2.91-7.47 6.14-16.07 7.17-19.09 1.02-3.03 2.53-8.43 4.84-18.52l20.84 0.03-0.01 2.95c0 1.62-0.36 5.25-0.8 8.06-0.45 2.81-1.75 7.94-2.89 11.41-1.14 3.46-6.6 17.26-22.19 55.06h-30.09l-16.85-38.54c-9.27-21.2-16.84-38.64-16.83-38.75 0.02-0.12 6.77-0.12 29.96 0.2zm385.32-0.39h24.38v77.87h-24.38z"/>
	</g>
</svg>