<svg version="1.2" xmlns="http://www.w3.org/2000/svg" viewBox="0 0 1536 279" width="1536" height="279">
	<style>
		.s0 { opacity: .94;fill: #fbcb0a } 
		.s1 { opacity: .99;fill: #ffffff } 
	</style>
	<g id="Layer 1">
		<g id="Background">
			<path id="Path 0" fill-rule="evenodd" class="s0" d="m1248.04 204.25c-0.52 1.24-2.09 5.18-3.5 8.75-1.4 3.57-4.01 8.89-5.8 11.82-1.78 2.92-6.4 8.54-10.27 12.5-3.87 3.95-10.39 9.41-14.5 12.13-4.11 2.72-10.39 6.47-13.97 8.33-3.58 1.87-6.69 3.58-6.92 3.81-0.23 0.23 57.04 0.41 127.25 0.41h127.67l-0.5-59.5-198.52-0.51zm-663.81 12.64c-0.31 0.25-0.49 10.27-0.4 22.28l0.17 21.84h9l-0.49-43.79c-5.98-0.6-7.97-0.58-8.28-0.33zm14.77 0.32c-0.77 0.66-1.3 2.12-1.19 3.25 0.12 1.12 0.55 2.63 0.95 3.34 0.44 0.77 2.15 1.17 4.24 1 3.08-0.26 3.53-0.65 3.77-3.29 0.16-1.65-0.29-3.59-1-4.3-0.7-0.71-2.19-1.27-3.32-1.25-1.13 0.03-2.68 0.59-3.45 1.25zm47.57 0.98c-1.01 1.47-1.32 3.01-0.84 4.22 0.43 1.04 1.78 2.28 3.02 2.75 1.24 0.46 2.92 0.62 3.75 0.35 0.82-0.28 1.78-1.74 2.13-3.25 0.35-1.52 0.2-3.43-0.35-4.25-0.54-0.83-2.14-1.64-3.54-1.82-1.78-0.21-3.06 0.4-4.17 2zm-571.57 22.32v20.5h9l0.01-16.5 14.99 0.5v-7.5l-15 0.5v-11h18v-7h-27zm125 0v20.5h9v-17l14 1v-7h-14v-11l16.37-0.5 0.63-6.5h-26zm100.4-19.21c-3.46 0.81-3.83 1.2-3.63 3.8 0.17 2.18-0.27 3.03-1.77 3.41-1.45 0.36-2 1.33-2 3.5 0 2.16 0.55 3.13 2 3.5 1.83 0.45 2 1.33 2 10.5 0 9.33 0.17 10.16 2.5 12.5 2.06 2.06 3.47 2.5 8 2.5h5.5c-0.04-7.07-0.3-7.46-2.27-7.15-1.23 0.2-3.02-0.37-3.98-1.25-1.43-1.31-1.7-3.04-1.5-9.35l0.25-7.75c7.5 0.5 7.5 0.5 7.5-3.5v-4c-7.42 0.49-7.51 0.41-8.12-3.56l-0.62-4.06zm32.59 2.21v3.5h12v34h8v-34h12v-7h-32zm103.43-2.22c-3.49 0.82-3.86 1.21-3.65 3.82 0.18 2.31-0.19 2.9-1.78 2.9-1.62 0-2 0.66-2 3.5 0 2.66 0.48 3.62 2 4 1.84 0.46 2 1.33 2 10.5 0 9.33 0.17 10.16 2.5 12.5 2.11 2.11 3.44 2.5 8.5 2.5h6c-0.47-7.1-0.77-7.48-3-7.25-1.37 0.15-3.01-0.08-3.65-0.5-0.63-0.41-1.25-3.68-1.39-7.25-0.14-3.58-0.19-7.29-0.1-8.25 0.1-1.31 1.03-1.75 3.64-1.75 3.22 0 3.5-0.24 3.5-3 0-1.65 0.34-3.01 0.75-3.03 0.41-0.01 3.56 6.97 7 15.5l6.25 15.53-6 13c8.96 0.05 9.66-0.26 10.87-2.72 0.75-1.53 4.7-11.33 8.76-21.78 4.07-10.45 7.39-19.57 7.38-20.25q0.02-1.26-4.26-1l-4.25 0.25c-4.95 14.72-6.65 19.9-6.97 21-0.41 1.41-1.86-1.38-4.94-9.5l-4.36-11.5c-13.35 0-17.24 0-17.26 0-0.03 0-0.3-1.8-0.61-4-0.31-2.2-0.67-4.03-0.81-4.07-0.13-0.03-1.98 0.35-4.12 0.85zm73.57 19.22v20.5c19.48-0.55 22.3-1.02 25.75-2.8 2.52-1.3 5.36-3.94 6.98-6.45 1.76-2.75 2.85-6.02 3.1-9.25 0.21-2.75-0.12-6.8-0.74-9-0.62-2.2-2.58-5.44-4.36-7.2-1.77-1.76-4.92-3.9-6.98-4.75-2.53-1.05-6.99-1.55-13.75-1.55h-10zm9-13.5l2.75-0.02c1.51 0 4.1 0.24 5.75 0.53 1.65 0.3 4.01 1.43 5.25 2.51 1.24 1.09 2.76 3.66 3.37 5.73 0.66 2.2 0.82 5.4 0.38 7.75-0.43 2.34-1.9 5.14-3.54 6.75-2.38 2.33-3.64 2.75-13.96 2.75v-13zm-414.66 2.43c-0.4 0.86-0.53 7-0.28 13.64l0.44 12.09c5.9 5.3 7.4 5.84 11.37 5.84 3.99 0 5.34-0.5 7.53-2.75l2.68-2.75c-0.08 5.29 0.22 5.5 3.92 5.5h4v-33h-8c0 20.3-0.16 21.16-2.45 23.5-1.35 1.37-3.26 2.52-4.25 2.54-0.99 0.02-2.8-0.76-4.04-1.75-2.04-1.63-2.26-2.77-2.5-12.79l-0.26-11c-6.31-0.53-7.64-0.16-8.16 0.93zm35.66 15.07v16.5h8c0-20.31 0.17-21.17 2.46-23.5 1.35-1.38 3.26-2.49 4.25-2.47 0.98 0.02 2.69 0.71 3.79 1.54 1.77 1.33 2.03 2.85 2.25 12.97l0.25 11.46 8.5-0.01c-0.22-6.58-0.33-12.66-0.39-17.74-0.1-8.88-0.23-9.37-3.11-12.25-2.47-2.48-3.83-3.01-7.75-3.04-3.25-0.02-5.62 0.61-7.5 2-2.74 2.03-2.75 2.03-2.75 0.04 0-1.67-0.66-2-4-2h-4zm96-15.8c-0.82 0.3-2.55 1.51-3.84 2.67-1.29 1.17-3.03 3.48-3.86 5.13-0.83 1.65-1.5 5.25-1.48 8 0.02 2.75 0.51 6.12 1.08 7.5 0.57 1.37 1.84 3.43 2.82 4.57 0.98 1.14 2.79 2.6 4.03 3.25 1.24 0.65 4.28 1.18 6.75 1.18 3.34 0 5.28-0.65 7.5-2.5l3-2.5c0 4.75 0.4 5 4 5h4c-0.48-31.31-0.63-32.5-2.4-32.83-1.05-0.19-2.88-0.08-4.06 0.25-1.22 0.33-2.02 1.25-1.85 2.09 0.17 0.82 0.17 1.49 0 1.49-0.18 0-1.64-0.92-3.25-2.04-1.87-1.29-4.39-1.99-6.94-1.92-2.2 0.06-4.67 0.36-5.5 0.66zm3.5 7.37c1.1-0.52 2.56-0.97 3.25-1.01 0.69-0.03 2.26 0.46 3.5 1.1 1.24 0.64 2.8 1.88 3.47 2.75 0.67 0.87 1.23 3.27 1.25 5.34 0.02 2.06-0.31 4.49-0.72 5.39-0.41 0.9-1.99 2.25-3.5 3-1.51 0.75-3.42 1.36-4.25 1.36-0.82 0-2.85-1.35-4.5-3q-3-3-3-6c0-1.65 0.56-4.13 1.25-5.5 0.69-1.38 2.15-2.92 3.25-3.43zm30-6.26c-1.65 0.99-3.61 3.13-4.37 4.75-1.16 2.49-1.16 3.44 0 6.24 0.8 1.92 2.63 3.87 4.37 4.67 1.65 0.76 5.21 1.97 7.9 2.7 2.7 0.73 5.18 1.91 5.5 2.61 0.33 0.71 0.15 1.69-0.4 2.18-0.55 0.49-2.24 1.15-3.75 1.47-2.08 0.43-3.36-0.04-5.25-1.93-1.71-1.72-3.6-2.5-6-2.5-3.06 0-3.5 0.31-3.5 2.5 0 1.62 1.24 3.55 3.5 5.5 2.97 2.54 4.34 3 9 3 3.03 0 7.08-0.68 9-1.5 1.93-0.83 3.95-2.4 4.5-3.5 0.55-1.1 1-3.35 1-5 0-1.65-0.34-3.74-0.75-4.64-0.41-0.91-1.99-2.26-3.5-3-1.51-0.75-5-1.81-7.75-2.36-3.21-0.65-5.23-1.63-5.65-2.75-0.42-1.14 0.02-2.2 1.25-3.02 1.05-0.7 2.46-1.26 3.15-1.25 0.69 0.01 2.6 1.14 4.25 2.52 1.65 1.37 4.13 2.5 5.5 2.5 1.56 0 2.5-0.57 2.5-1.5 0-0.83-0.56-2.68-1.25-4.12-0.69-1.44-2.49-3.24-4-4-1.51-0.76-4.89-1.38-7.5-1.38-2.8 0-5.98 0.75-7.75 1.81zm99.75 0.19c-1.79 1.1-4.15 3.46-5.24 5.25q-2 3.25-2 8.5c-0.01 2.88 0.61 6.71 1.36 8.5 0.76 1.78 2.6 4.37 4.1 5.75 1.99 1.82 4.11 2.6 7.88 2.87 4.38 0.31 5.64-0.03 8.4-2.25l3.25-2.62c0 4.75 0.4 5 4 5h4v-33c-7.6 0-8 0.25-8 2.5v2.5c-5.17-4.31-7.18-5-10.25-5-2.49 0-5.59 0.83-7.5 2zm5.65 6.08c0.88-0.56 2.16-1.04 2.85-1.05 0.69-0.02 2.6 0.64 4.25 1.47 2.19 1.09 3.27 2.58 4 5.5 0.55 2.2 0.78 4.9 0.5 6-0.27 1.1-1.74 2.91-3.25 4.03-1.51 1.12-3.65 2.04-4.75 2.04-1.1 0-3.12-0.85-4.5-1.88-1.44-1.08-2.82-3.43-3.25-5.54-0.54-2.65-0.3-4.46 0.9-6.6 0.9-1.63 2.37-3.41 3.25-3.97zm30.1-6.39c-1.37 0.94-3.05 2.41-3.72 3.26-0.67 0.85-1.23 3.23-1.25 5.3-0.02 2.72 0.59 4.23 2.22 5.52 1.24 0.97 5.36 2.66 9.15 3.75 3.84 1.1 7.12 2.64 7.4 3.48 0.28 0.82-0.35 2.09-1.4 2.81-1.14 0.79-3.09 1.07-4.9 0.7-1.65-0.34-3.56-1.5-4.25-2.57-0.85-1.32-2.37-1.94-4.75-1.94-2.22 0-3.68 0.54-4 1.5-0.28 0.85 1.11 3.2 3.25 5.45 3.51 3.7 4.13 3.96 9.5 4 3.16 0.03 7.33-0.63 9.25-1.45 1.93-0.83 3.95-2.4 4.5-3.5 0.55-1.1 1-3.35 1-5 0-1.65-0.45-3.9-1-5-0.55-1.1-2.91-2.65-5.25-3.44-2.34-0.79-5.94-1.69-8-2-2.35-0.35-3.95-1.21-4.3-2.31-0.33-1.04 0.18-2.27 1.25-3.02 0.99-0.7 2.59-1.26 3.55-1.25 0.96 0.01 3.1 1.14 4.75 2.52 1.65 1.37 4.13 2.5 5.5 2.5 1.93 0 2.5-0.51 2.48-2.25-0.01-1.24-0.8-3.21-1.75-4.39-0.95-1.17-2.74-2.63-3.98-3.25-1.24-0.61-4.61-1.12-7.5-1.12-3.32-0.01-6.16 0.62-7.75 1.7zm151.06 0.47c-1.89 1.28-4.34 3.91-5.43 5.84-1.26 2.2-1.99 5.34-1.99 8.5 0 3.15 0.73 6.29 1.99 8.5 1.09 1.92 3.54 4.52 5.43 5.77 2.51 1.66 4.87 2.28 8.69 2.25 2.89-0.01 6.6-0.7 8.25-1.52 1.65-0.83 3.9-2.97 5-4.75 1.1-1.79 1.99-3.48 1.99-3.75 0-0.28-1.8-0.39-4-0.25-2.19 0.13-5 0.93-6.24 1.75-1.24 0.83-3.37 1.53-4.75 1.55-1.37 0.02-3.47-0.77-4.66-1.76-1.19-0.99-2.43-2.81-2.75-4.04-0.59-2.25-0.57-2.25 11.16-2.07l11.75 0.17c-0.52-6.09-1.32-9.2-2.12-10.85-0.79-1.65-2.67-3.89-4.16-4.98-1.78-1.29-4.79-2.1-8.72-2.34-5.01-0.3-6.57 0.03-9.44 1.98zm5.44 4.91c1.1-0.52 2.34-0.97 2.75-1.01 0.41-0.03 1.76 0.39 3 0.94 1.24 0.55 2.81 2.13 4.75 6h-15l1.25-2.5c0.69-1.38 2.15-2.92 3.25-3.43zm36.31 9.61l0.19 16.32h9l-0.5-32.5-8.88-0.13zm20.12-14.42c-1.88 1.25-4.21 3.84-5.18 5.75-1 1.99-1.74 5.73-1.75 8.73 0 2.89 0.63 6.49 1.41 8 0.77 1.52 2.61 3.88 4.09 5.25 2.14 2 3.93 2.57 8.84 2.84 3.71 0.2 7.32-0.2 9.07-1 1.6-0.74 3.96-2.57 5.25-4.09 1.29-1.51 2.34-3.65 2.34-4.75 0-1.61-0.66-2-3.5-2-2.26 0-4.55 0.89-6.5 2.5-1.65 1.38-4.12 2.5-5.5 2.5-1.37 0-3.4-0.9-4.5-2-1.1-1.1-2.26-3.46-2.59-5.25-0.36-1.98 0.03-4.71 1-7 1.23-2.88 2.28-3.86 4.59-4.25 1.65-0.27 3.98-0.04 5.18 0.53 1.2 0.56 2.55 1.91 3 3 0.63 1.5 1.78 1.97 4.82 1.97 3.16 0 4-0.37 3.97-1.75-0.01-0.96-0.86-3.1-1.88-4.75-1.02-1.65-3.48-3.78-5.47-4.75-1.99-0.96-5.79-1.75-8.44-1.75-3.33 0-5.87 0.7-8.25 2.27zm28.07 14.48v16.25h8v-32.5h-7.99zm20.02-14.5c-1.84 1.24-4.2 3.38-5.24 4.75-1.05 1.38-2.16 4.53-2.48 7-0.31 2.48-0.04 6.08 0.59 8 0.64 1.93 2.28 4.74 3.63 6.25 1.36 1.52 3.6 3.2 4.97 3.75 1.38 0.55 4.64 1.01 7.25 1.01 2.72 0 6.26-0.79 8.25-1.86 1.93-1.02 4.51-3.61 5.74-5.75q2.23-3.89 2.23-8.9 0-5-2.23-8.89c-1.23-2.14-3.81-4.73-5.74-5.75-2.08-1.11-5.54-1.86-8.57-1.86-3.59 0-6.03 0.66-8.4 2.25zm3.47 7.21c1.33-1.35 3.56-2.46 4.96-2.46 1.4 0 3.67 1.13 5.04 2.5 1.38 1.38 2.58 3.74 2.66 5.25 0.09 1.52 0.09 3.65 0 4.75-0.09 1.1-1.29 3.02-2.66 4.25-1.37 1.24-3.62 2.25-5 2.25-1.37 0-3.62-1.12-5-2.5-1.95-1.95-2.49-3.49-2.45-7.04 0.03-3.42 0.64-5.16 2.45-7zm25.5 3.04c0 7.2 0.48 13.46 1.12 14.75 0.62 1.24 2.08 3.03 3.25 3.98 1.28 1.04 3.93 1.75 6.63 1.79 3.03 0.04 5.4-0.61 7.25-1.98 2.74-2.03 2.75-2.03 2.75-0.04 0 1.71 0.67 2 4.5 2h4.5l-0.5-32.5h-8c-0.38 14.73-0.68 19.9-0.92 21-0.23 1.1-1.69 2.61-3.25 3.34-1.55 0.73-3.84 1.07-5.08 0.75-1.23-0.32-2.7-1.71-3.25-3.09-0.55-1.37-1-7-1-12.5v-10h-8zm38.93-10.2c-1.88 1.26-3.83 3.4-4.32 4.75-0.48 1.35-0.6 3.69-0.25 5.2 0.36 1.52 1.91 3.54 3.46 4.5 1.55 0.97 5.37 2.32 8.5 3 3.71 0.82 5.91 1.86 6.33 3 0.43 1.14-0.02 2.2-1.25 3.02-1.04 0.7-2.68 1.26-3.65 1.25-0.96-0.01-3.1-1.14-4.75-2.52-2.08-1.73-3.99-2.42-6.25-2.25-2.62 0.21-3.19 0.64-2.95 2.25 0.17 1.1 1.85 3.47 3.75 5.25 3.03 2.86 4.12 3.25 8.95 3.25 3.03 0 7.08-0.67 9-1.5 1.93-0.82 3.95-2.4 4.5-3.5 0.55-1.1 0.99-3.46 0.97-5.25-0.02-1.78-0.58-4-1.25-4.91-0.67-0.92-2.9-2.38-4.97-3.25-2.06-0.87-4.76-1.57-6-1.54-1.23 0.02-3.31-0.77-4.62-1.75-2.23-1.69-2.27-1.9-0.68-3.55 0.93-0.96 2.56-1.75 3.63-1.75 1.06 0 2.94 1.11 4.17 2.47 1.49 1.62 3.36 2.47 5.5 2.5 2.24 0.02 3.25-0.43 3.25-1.47 0-0.82-0.56-2.67-1.25-4.12-0.68-1.44-2.48-3.24-4-4-1.51-0.75-4.91-1.38-7.57-1.38-3.36 0-5.85 0.7-8.25 2.3zm-557.1 21.95c-0.89 0.69-1.89 2.27-2.23 3.5-0.36 1.37-0.01 2.84 0.9 3.75 0.83 0.83 2.76 1.5 4.3 1.5 1.54 0 3.35-0.56 4.02-1.25 0.67-0.68 1.21-2.48 1.2-4-0.01-1.73-0.75-3.11-2.02-3.75-1.1-0.55-2.57-1-3.27-1-0.7 0-2.01 0.57-2.9 1.25zm139.87 0.95c-0.87 1.31-1.24 3.11-0.86 4.18 0.36 1.03 1.11 2.28 1.66 2.78 0.55 0.49 2.35 0.77 3.99 0.62 2.22-0.21 3.23-0.98 4-3.06 0.71-1.95 0.68-3.31-0.09-4.5-0.6-0.95-2.47-1.85-4.14-2.02-2.27-0.23-3.42 0.27-4.56 2zm167.3-1c-0.77 0.66-1.31 2.35-1.21 3.75 0.1 1.41 0.75 3.12 1.45 3.82 0.69 0.7 2.41 1.26 3.81 1.25 1.41-0.01 3.1-0.58 3.77-1.27 0.67-0.68 1.22-2.37 1.22-3.75 0-1.37-0.57-3.07-1.27-3.76-0.7-0.7-2.41-1.26-3.82-1.25-1.4 0.01-3.18 0.55-3.95 1.21zm277.47 0.63c-1 1.01-1.75 2.7-1.66 3.75 0.09 1.06 0.73 2.49 1.43 3.19 0.69 0.7 2.5 1.26 4.01 1.25 1.73-0.01 3.32-0.85 4.26-2.27 0.83-1.23 1.51-2.81 1.5-3.5 0-0.68-0.68-1.92-1.51-2.75-0.82-0.82-2.55-1.5-3.85-1.5-1.29 0-3.17 0.83-4.18 1.83z"/>
			<path id="Path 1" fill-rule="evenodd" class="s1" d="m1020.04 15.28c11.03 0.21 11.88 0.38 19 3.86 4.83 2.35 8.8 5.17 11.26 8 2.09 2.4 4.9 6.72 6.25 9.61 1.35 2.89 3.11 8.06 3.92 11.5 0.8 3.44 1.75 11.2 2.1 17.25 0.45 7.67 0.17 14.63-0.93 23-0.87 6.6-2.73 16.05-4.15 21-1.41 4.95-4.98 13.95-7.93 20-2.95 6.05-7.1 13.21-13.06 20.83l4 3.32c2.2 1.83 6.03 4.29 8.5 5.48 2.47 1.18 6.42 2.42 13.03 3.37l-0.03 28.5-9.75-0.02c-5.63-0.01-12.28-0.68-15.75-1.6-3.3-0.87-7.58-2.4-9.5-3.4-1.92-1-6.09-4.1-15-11.98l-6.75 4.36c-3.71 2.41-10.24 6.23-22.25 12.64l-3.34-5.25c-1.84-2.89-4.98-8.18-6.98-11.75-2-3.57-3.63-6.95-3.63-7.5 0-0.55 3.93-3.34 8.73-6.19 4.8-2.86 9.68-6.23 12.99-9.81l-4.9-8.5c-2.7-4.68-6.3-11.87-8.01-16-1.71-4.12-4.19-11.78-5.5-17-1.31-5.22-2.88-14.45-3.48-20.5-0.6-6.05-0.8-14.83-0.43-19.5 0.36-4.67 1.25-11.42 1.97-15 0.72-3.57 2.67-9.42 4.34-13 1.67-3.57 5.27-8.97 8-12 2.73-3.02 7.39-6.83 10.35-8.45 2.96-1.62 7.64-3.52 10.39-4.22 2.96-0.76 9.71-1.19 16.54-1.05zm-13.42 35.72c-0.89 1.37-2.28 6.1-3.09 10.5-0.8 4.4-1.47 11.6-1.48 16-0.01 4.4 0.63 12.5 1.42 18 0.79 5.5 2.29 12.47 3.34 15.5 1.05 3.03 3.1 7.86 4.55 10.75 1.45 2.89 3.09 5.47 3.64 5.75 0.55 0.28 2.77-3.21 4.93-7.75 2.16-4.54 5.05-12.08 6.41-16.75 1.36-4.67 2.96-13.67 3.56-20 0.69-7.36 0.75-14.38 0.18-19.5-0.49-4.4-1.53-9.58-2.3-11.5-0.77-1.92-2.5-4.29-3.84-5.26-1.49-1.07-4.2-1.74-6.94-1.73-2.74 0.02-5.33 0.71-6.62 1.76-1.17 0.95-2.86 2.85-3.76 4.23zm76.38-34.99c3.77-0.02 6.92 0.69 9.99 2.23 2.47 1.24 5.42 3.61 6.54 5.26 1.13 1.65 2.38 5.02 2.79 7.5 0.45 2.78 0.28 5.84-0.45 8-0.64 1.92-1.89 4.57-2.77 5.88-0.88 1.31-3.4 3.44-5.6 4.73-3.06 1.8-5.52 2.35-10.5 2.38-4.81 0.02-7.66-0.56-10.96-2.23-3.19-1.62-5.12-3.53-6.83-6.76-1.85-3.53-2.3-5.7-2.04-10.07 0.24-4.01 1.07-6.63 2.96-9.36 1.6-2.3 4.34-4.52 7-5.66 2.45-1.04 6.79-1.88 9.87-1.9zm-671 0.99h36v36h-36zm395 0h33v71.5c0 62.22 0.19 71.69 1.5 73 0.83 0.82 3.08 1.5 8.5 1.5v28l-13.93-0.25c-12.22-0.22-14.27-0.5-16.75-2.3-1.55-1.13-3.95-4.36-7.82-12.33l-4 3.95c-2.2 2.18-6.48 5.26-9.5 6.85-3.02 1.59-7.98 3.61-11 4.49-3.64 1.07-9.4 1.61-17 1.61-8.35 0-13.69-0.56-19.5-2.06-4.4-1.13-10.65-3.49-13.89-5.26-3.25-1.76-8.31-5.45-11.25-8.2-2.94-2.75-6.94-7.7-8.87-11-1.94-3.3-4.26-8.47-5.16-11.5-0.9-3.03-1.91-7.07-2.86-12.5l-47.24-0.25c-41.43-0.22-47.23-0.07-47.23 1.25 0 0.82 0.86 3.19 1.91 5.25 1.05 2.06 3.42 5.19 5.25 6.95 1.84 1.76 5.59 4.21 8.34 5.44 3.68 1.66 7.51 2.36 14.5 2.68 7.04 0.32 11.05-0.02 15.5-1.29 4.61-1.32 7.05-2.79 15-10.9l15 0.71c8.25 0.39 15.23 0.93 15.5 1.19 0.27 0.27-0.27 2.39-1.22 4.73-0.94 2.33-3.45 6.94-5.57 10.24-2.12 3.3-6.29 8.19-9.28 10.87-2.99 2.68-7.91 6.12-10.93 7.65-3.02 1.53-8.42 3.54-12 4.48-4.67 1.22-10.22 1.67-19.75 1.6-8.02-0.06-15.91-0.71-20-1.65-3.71-0.85-10.01-3.1-14-5-5.17-2.46-9.36-5.53-14.6-10.7-5.37-5.3-8.33-9.27-11.01-14.75-2.02-4.12-4.38-10.87-5.25-15-1.13-5.32-1.44-10.56-1.09-18 0.36-7.45 1.25-12.83 3.08-18.5 1.41-4.4 4.09-10.25 5.95-13 1.86-2.75 5.85-7.47 8.86-10.5 3.31-3.32 8.42-6.99 12.9-9.25 4.19-2.13 10.88-4.46 15.41-5.37 5.9-1.19 11.41-1.49 21-1.14 9.4 0.35 14.8 1.06 19.5 2.57 3.58 1.15 9.31 3.92 12.75 6.14 3.44 2.23 8.32 6.19 10.84 8.8 2.52 2.61 6.34 7.9 8.47 11.75 2.14 3.85 4.68 10.27 5.66 14.26 0.98 4 2.01 7.27 2.28 7.27 0.27 0 1.15-3.05 1.93-6.77 0.79-3.72 3.2-10.36 5.36-14.76 2.78-5.68 5.7-9.74 10.07-14 3.56-3.47 8.9-7.35 12.65-9.2 3.57-1.76 9.41-3.89 12.99-4.73 3.58-0.85 10.66-1.55 15.75-1.56 5.09 0 12.51 0.72 16.5 1.61 3.99 0.9 9.39 2.7 12 4 2.61 1.31 6.57 4.07 12.84 9.88l-0.04-34.25zm-179.25 82.11c-2.33 1.16-5.3 3.08-6.59 4.25-1.3 1.18-3.37 4.17-4.61 6.64-1.24 2.48-2.55 5.74-2.9 7.25l-0.65 2.75h64c-0.91-3.49-2.15-6.5-3.34-8.93-1.19-2.44-4.18-6.17-6.66-8.29-2.47-2.12-6.52-4.49-9-5.27-2.47-0.77-6.75-1.61-9.5-1.85-2.75-0.25-7.58-0.05-10.75 0.45-3.16 0.49-7.66 1.84-10 3zm125.19 7.95c-2.82 2.26-5.63 5.91-7.71 10-2.86 5.65-3.26 7.39-3.25 14.19q0.03 7.75 1.96 13c1.12 3.01 3.78 7.15 6.25 9.7 2.37 2.45 6.79 5.57 9.81 6.94 4.37 1.98 7.15 2.5 13.5 2.51 4.85 0.02 9.98-0.63 13-1.64 2.94-0.97 7.22-3.64 10.39-6.46 2.96-2.64 6.15-6.37 7.1-8.3 0.95-1.93 2.05-4.85 2.45-6.5 0.39-1.65 0.69-6.15 0.66-10-0.04-5.34-0.63-8.19-2.51-12-1.35-2.75-4.17-6.77-6.27-8.93-2.1-2.17-6.29-5.07-9.32-6.44-4.04-1.85-7.62-2.6-13.5-2.85-5.8-0.24-9.39 0.15-13.06 1.44-2.79 0.98-7.06 3.38-9.5 5.34zm488.06-90.06h34v66l4.75-3.79c2.62-2.09 7.45-4.85 10.75-6.14 4.64-1.82 8.63-2.46 17.5-2.83 7.27-0.3 13.53-0.02 17 0.76 3.03 0.68 7.64 2.31 10.25 3.62 2.62 1.31 6.61 4.07 8.87 6.13 2.27 2.06 5.29 5.78 6.71 8.25 1.43 2.47 3.47 7.2 4.54 10.5 1.66 5.09 2.01 9.58 2.32 29.5 0.2 12.93 0.58 24.96 0.84 26.75 0.26 1.79 1.37 4.15 2.47 5.25 1.41 1.41 3.34 2 11 2v14c0 12.38-0.2 14.09-1.75 14.75-0.96 0.41-7.6 0.75-14.75 0.75-11.84 0-13.49-0.23-18.5-2.56-3.02-1.4-6.47-3.88-7.67-5.5-1.19-1.61-2.96-4.74-3.94-6.94-1.51-3.42-1.84-8.33-2.89-64.16l-3-4.86c-1.65-2.67-4.57-5.79-6.5-6.92-2.79-1.64-5.21-2.06-12-2.06-7.21 0-9.17 0.38-12.96 2.5-2.45 1.38-5.51 4.08-6.79 6-1.28 1.93-2.76 5.08-3.28 7-0.53 1.92-0.96 19.81-0.97 76h-36zm-910 15h36v39l40.5 0.5v27l-39.5 0.5 0.5 60.96 5.55 5.54h32.96l-0.01 25.5-4.75 0.75c-2.61 0.41-13.75 0.74-24.75 0.73-18.75-0.02-20.37-0.17-26-2.42-3.91-1.57-7.77-4.17-11.11-7.48-3.65-3.64-5.63-6.64-6.93-10.58-1.58-4.79-1.85-9.89-2.46-73h-12l0.5-27.5 11.5-0.5zm1045 0h36v39h37v28h-37v29c0 23.56 0.29 29.66 1.5 32.5 1.06 2.46 2.47 3.81 4.75 4.54 1.79 0.57 9.33 0.94 30.25 0.63l0.52 11.91c0.28 6.56 0.39 12.48 0.25 13.17-0.19 0.86-3.73 1.44-11.52 1.87-6.18 0.33-17.1 0.44-24.25 0.23-12.12-0.35-13.44-0.58-19.5-3.5-3.9-1.88-7.76-4.67-9.67-6.99-1.74-2.12-4.21-6.11-5.5-8.86-2.28-4.9-2.33-5.72-2.83-74.5h-16v-28h16zm-1234 37.56c1.93 0.2 5.98 0.66 9 1.03 3.03 0.37 7.3 1.32 9.5 2.12 2.2 0.8 5.8 2.7 8 4.23 2.2 1.53 5.88 5.21 8.17 8.17 2.29 2.96 5.15 8.32 6.36 11.89 1.88 5.56 2.32 9.83 3.02 29.5 0.63 17.88 1.27 24.84 2.88 31.25 1.14 4.54 3.27 10.61 4.72 13.5 1.46 2.89 4.37 7.5 6.48 10.25 2.1 2.75 3.83 5.56 3.85 6.25 0.01 0.69-1.89 1.68-4.23 2.21-2.33 0.52-8.52 1.26-13.75 1.63-7.39 0.53-10.77 0.32-15.25-0.95-3.42-0.98-7.19-2.95-9.32-4.89-2.07-1.89-4.44-5.55-5.67-8.75-1.89-4.96-2.16-8.32-2.69-34-0.58-27.78-0.66-28.62-3.08-33.41-1.37-2.7-3.61-5.67-4.99-6.61-1.37-0.94-4.3-2.28-6.5-2.98-2.53-0.81-6.11-1.04-9.75-0.64-3.16 0.35-7.43 1.49-9.5 2.53-2.06 1.05-4.48 2.73-5.38 3.75-0.89 1.02-2.47 3.44-3.5 5.36-1.72 3.22-1.89 6.58-2.37 80h-34v-120h32v6c0 3.3 0.34 6.01 0.75 6.03 0.42 0.01 1.88-1.14 3.25-2.57 1.38-1.42 4.3-3.6 6.5-4.84 2.2-1.24 5.8-2.85 8-3.59 2.2-0.73 6.25-1.66 9-2.08 2.75-0.41 6.58-0.58 8.5-0.39zm103.5 0.52c6.2-0.03 13.19 0.53 16 1.28 2.75 0.73 6.92 2.3 9.25 3.49 2.34 1.18 6.17 3.93 8.5 6.11 2.34 2.18 4.48 3.98 4.75 4.01 0.28 0.02 0.35-2.78-0.18-12.47l3.84-0.74c2.12-0.41 9.13-0.74 27.34-0.76l0.25 44.58c0.25 43.29 0.31 44.62 2.25 46.02 1.1 0.79 3.92 1.43 10.5 1.4v28l-13.25-0.02c-7.55-0.01-14.96-0.54-17.25-1.24-2.28-0.7-5.62-2.94-7.79-5.23-2.08-2.21-3.77-4.57-3.75-5.26 0.02-0.69-0.29-1.23-0.71-1.21-0.41 0.02-2.43 1.6-4.5 3.5-2.06 1.9-5.88 4.54-8.5 5.86-2.61 1.32-7.45 3.11-10.75 3.98-3.33 0.88-9.99 1.59-15 1.59-4.95 0-11.92-0.69-15.5-1.54-3.57-0.85-9.17-2.98-12.44-4.74-3.28-1.75-8.68-5.91-12-9.24-3.33-3.33-7.49-8.73-9.24-12-1.75-3.27-4.2-9.55-5.44-13.95-1.81-6.4-2.27-10.6-2.31-21-0.02-7.65 0.51-15.26 1.31-18.5 0.74-3.02 2.87-8.76 4.73-12.75 2.34-5 5.33-9.2 9.64-13.53 3.44-3.46 8.95-7.7 12.25-9.44 3.3-1.74 8.48-3.84 11.5-4.66 3.23-0.87 10.05-1.51 16.5-1.54zm-12.75 38.1c-3.84 3.9-5.16 6.21-6.89 12.07-1.6 5.41-2.02 8.9-1.65 13.75 0.27 3.58 1.37 8.53 2.45 11 1.08 2.48 3.74 6.45 5.9 8.82 2.17 2.38 5.97 5.3 8.44 6.49 3.49 1.67 6.31 2.15 12.5 2.12 6.3-0.03 9.15-0.56 13.4-2.48 2.97-1.35 7-4.25 8.94-6.45 1.95-2.2 4.47-6.02 5.6-8.5 1.63-3.54 2.06-6.53 2.06-14.07 0-8.66-0.28-10.13-3-15.45-2.05-4.03-4.57-7.07-8-9.64-2.75-2.07-6.91-4.23-9.25-4.8-2.33-0.57-7.06-1-10.5-0.96-3.43 0.04-8.27 0.8-10.75 1.68-2.66 0.95-6.43 3.57-9.25 6.42zm674.25-38.08c6.71-0.04 14.42 0.56 18.5 1.44 3.85 0.83 10.37 3.18 14.49 5.23 4.77 2.38 9.68 5.91 13.54 9.73 3.34 3.3 7.7 8.93 9.7 12.5 2.01 3.58 4.6 9.88 5.76 14 1.16 4.13 2.42 12.34 3.51 29.01h-47.25c-25.98-0.01-47.25 0.22-47.25 0.49 0 0.28 0.88 2.41 1.95 4.75 1.07 2.34 2.75 5.19 3.75 6.34 0.99 1.16 3.38 3.25 5.3 4.67 1.93 1.41 6.2 3.33 9.5 4.28 4.39 1.25 8.55 1.6 15.5 1.32 7.76-0.33 10.56-0.9 15.25-3.13 3.29-1.56 6.61-4.02 9.75-8.73h15c12.67 0 15 0.23 15 1.5 0 0.83-1.68 4.97-3.75 9.2-2.17 4.46-6.1 10.25-9.34 13.75-3.53 3.82-8.14 7.41-12.5 9.74-3.8 2.03-9.83 4.38-13.41 5.23-4.01 0.96-11.28 1.56-19 1.58-9.01 0.02-14.59-0.5-20-1.87-4.12-1.03-9.75-3.01-12.5-4.4-2.75-1.38-7.88-4.69-11.41-7.37-3.73-2.83-8.1-7.37-10.44-10.86-2.21-3.3-5.24-8.7-6.72-12-1.47-3.3-3.25-9.15-3.94-13-0.79-4.4-1.05-11.08-0.7-18 0.37-7.2 1.27-13.07 2.61-17 1.13-3.3 3.94-8.92 6.25-12.5 2.3-3.57 6.3-8.52 8.88-11 2.58-2.47 8.02-6.2 12.08-8.28 4.07-2.07 10.32-4.4 13.89-5.17 3.58-0.76 11.68-1.42 18-1.45zm-19.75 32.43c-1.78 1.36-4.31 4.61-5.6 7.22-1.3 2.61-2.65 5.99-3 7.5l-0.65 2.75h63c-0.97-3.49-2.21-6.49-3.38-8.92-1.16-2.44-4.14-6.18-6.62-8.31-2.54-2.2-6.67-4.52-9.5-5.34-2.75-0.8-8.6-1.42-13-1.39-5.51 0.04-9.55 0.67-13 2.04-2.75 1.09-6.46 3.09-8.25 4.45zm275.75-32.43c6.07-0.04 13.14 0.56 16.75 1.41 3.44 0.82 8.5 2.62 11.25 3.99 2.75 1.38 6.58 3.85 12 8.5v-13l31.5 0.5-0.14 60.5c-0.15 58.1-0.24 60.81-2.25 68.25-1.16 4.26-3.18 9.89-4.49 12.5-1.31 2.61-4.23 7.11-6.5 10-2.26 2.89-6.93 7.31-10.37 9.82-3.43 2.52-8.95 5.84-12.25 7.38-3.3 1.54-9.6 3.6-14 4.56-6.17 1.35-10.85 1.64-20.5 1.27-10.5-0.41-13.78-0.95-20.51-3.38-4.41-1.6-10.64-4.47-13.86-6.4-3.21-1.92-8.12-5.97-10.9-9-2.87-3.12-6.51-8.64-8.4-12.75-1.83-3.99-3.33-8.26-3.33-9.5 0-2.2 0.39-2.28 16.75-3.43 16.66-1.17 16.76-1.16 18.25 0.98 0.83 1.18 2.85 3.66 4.5 5.51 1.65 1.84 5.03 4.32 7.5 5.52 3.7 1.78 6.28 2.17 14.5 2.16 8.85 0 10.69-0.32 16-2.8 3.3-1.54 7.47-4.24 9.26-5.99 1.79-1.76 4.36-5.67 5.71-8.7 1.35-3.02 2.81-8.31 3.25-11.74 0.43-3.43 0.45-6.24 0.03-6.25-0.41 0-0.73 0.33-0.7 0.74 0.02 0.41-2.34 2.44-5.25 4.51-2.91 2.07-8.22 4.71-11.8 5.86-5.01 1.62-9.24 2.12-18.5 2.19-8.66 0.07-13.8-0.4-18.5-1.69-3.57-0.99-9.2-3.2-12.5-4.92-3.34-1.75-9.13-6.25-13.08-10.17-4.75-4.71-8.12-9.17-10.23-13.53-1.73-3.57-3.94-9.42-4.89-13-1.19-4.44-1.75-10.3-1.76-18.5-0.01-6.82 0.57-14.37 1.34-17.5 0.75-3.02 3.15-9.32 5.33-14 3.09-6.61 5.45-9.95 10.63-15.02 3.89-3.81 9.05-7.65 12.41-9.25 3.17-1.5 8.34-3.37 11.5-4.15 3.17-0.78 10.48-1.44 16.25-1.48zm-12.34 37.09c-2.79 2.48-5.98 6.65-7.5 9.81-2.34 4.84-2.65 6.7-2.63 15.5 0.02 8.79 0.34 10.61 2.62 15 1.43 2.75 4.34 6.54 6.47 8.43 2.14 1.88 5.91 4.34 8.38 5.46 3.42 1.56 6.55 2.04 13 2.03 6.93-0.02 9.52-0.49 14-2.54 3.03-1.38 7.22-4.28 9.31-6.45 2.09-2.16 4.76-5.95 5.92-8.43 1.16-2.47 2.32-7.2 2.57-10.5 0.31-3.98-0.12-8.02-1.28-12-0.95-3.3-2.97-7.8-4.47-10-1.5-2.2-4.71-5.48-7.14-7.29-2.42-1.8-6.66-3.95-9.41-4.76-2.75-0.81-7.47-1.43-10.5-1.39-3.02 0.04-7.52 0.69-10 1.45-2.47 0.75-6.68 3.3-9.34 5.68zm-737.66-36.19h35v120h-35zm39.72 0h41.28l6.65 17.25c3.65 9.49 10.6 27.38 15.43 39.75 4.83 12.38 9.3 23.85 9.93 25.5 1.09 2.85 1.56 1.88 9.61-20 4.66-12.65 10.02-28.17 11.92-34.5 1.9-6.32 3.79-15.23 4.96-28.06l30 0.56 0.32 9c0.17 4.95-0.2 11.7-0.81 15-0.62 3.3-2.25 9.83-3.63 14.5-1.38 4.68-4.09 12.78-6.02 18-1.93 5.23-8.03 20.98-13.57 35-5.53 14.03-10.56 26.09-11.17 26.81-0.87 1.02-6.01 1.24-45.98 0.69l-2.8-6.5c-1.54-3.57-12.31-29.45-23.93-57.5-11.61-28.05-21.36-52.01-21.65-53.25zm613.29 0h34v120h-34zm324.75 144.04c2.33-0.02 5.6 0.64 7.25 1.46 1.65 0.83 3.68 2.51 4.5 3.75 0.83 1.24 1.51 3.04 1.5 4 0 1.33-0.84 1.75-3.5 1.75-2.67 0-3.86-0.6-5-2.5-1.12-1.86-2.35-2.5-4.8-2.5-1.82 0-3.85 0.56-4.52 1.25-0.67 0.69-1.21 2.26-1.2 3.5 0.01 1.38 0.89 2.62 2.27 3.2 1.23 0.52 4.83 1.64 8 2.5 4 1.08 6.37 2.39 7.78 4.3 1.16 1.56 2.02 4.26 2.01 6.25-0.02 1.93-0.82 4.6-1.79 5.94-0.96 1.34-3.22 3.03-5 3.75-1.79 0.72-5.05 1.31-7.25 1.31-2.2 0-5.47-0.59-7.25-1.31-1.79-0.72-4.04-2.41-5.01-3.75-0.97-1.34-1.75-3.34-1.75-4.44 0.01-1.7 0.58-1.95 3.76-1.68 2.7 0.22 4.03 0.93 4.75 2.5 0.74 1.63 2.01 2.25 5 2.45 2.23 0.14 4.57-0.3 5.29-1 0.71-0.7 1.28-2.28 1.25-3.52-0.03-1.48-1.08-2.77-3.04-3.75-1.65-0.82-3.45-1.5-4-1.5-0.55 0-3.14-0.89-5.75-1.98-2.83-1.18-5.26-3-6-4.5-0.69-1.39-1.26-3.76-1.26-5.27 0-1.51 0.72-3.81 1.61-5.1 0.89-1.3 3.03-2.97 4.76-3.71 1.73-0.75 5.05-1.38 7.39-1.4zm-107.75 0.96h10c9.54 0 10.13 0.13 12.88 2.75 1.59 1.51 3.23 4.1 3.65 5.75 0.41 1.65 0.35 4.56-0.14 6.47-0.59 2.28-2.08 4.25-4.39 5.77-2.66 1.76-4.89 2.31-15 2.26l-0.01 13.5-6.99-0.5zm31.5 0h7.5v30h16v6h-23zm27.5 0h7v13.5c0 12.17 0.19 13.7 2 15.5 1.1 1.1 3.23 2.02 4.75 2.04 1.51 0.02 3.87-0.83 5.25-1.91 2.43-1.9 2.5-2.3 2.75-29.13h7.25v13.5c0 10-0.39 14.28-1.5 16.5-0.83 1.65-2.97 3.9-4.75 5-2.05 1.25-5.01 1.99-8 2-2.62 0-6.33-0.68-8.25-1.5-1.98-0.85-4.15-2.8-5-4.5-1.12-2.24-1.5-6.56-1.5-17z"/>
			<path id="Path 2" fill-rule="evenodd" class="s0" d="m1290.16 226.86l-0.16 6.14c7.44 0 10.15-0.56 10.82-1.25 0.67-0.69 1.23-2.6 1.24-4.25 0.02-1.65-0.55-3.54-1.27-4.21-0.71-0.66-3.36-1.51-5.88-1.88l-4.6-0.68z"/>
		</g>
	</g>
</svg>